<svg xmlns="http://www.w3.org/2000/svg" viewBox="0 0 750 500"><g id="freepik--background-complete--inject-79"><path d="M518.69,88c8.95,0,159.57,1,169,.69.68,0,1-1,.37-1.35-6-3-12.73-2.36-18.93-4.45-3.65-1.23-5.89-3.62-8.42-6.35a17.51,17.51,0,0,0-7.84-5.12,16.57,16.57,0,0,0-8.53-.27c-3.06.73-5.71,2.48-8.63,3.58-7.24,2.73-14.27.14-19.43-5.22-4.26-4.41-8.45-8.57-14.24-10.95-4.85-2-10.24-2.4-15.09-.21-5.53,2.5-9.32,7.54-14.51,10.57-6.15,3.59-13.51,2.74-20.3,3.83s-12,6.8-18,10.1a12.67,12.67,0,0,1-6.5,2,37.92,37.92,0,0,1-4-.56c-2-.25-4-.19-5.38,1.52C518,86.18,518.1,88,518.69,88Z" style="fill:#ebebeb"></path><path d="M61.93,72.22c6.53,0,116.5.72,123.41.5a.54.54,0,0,0,.27-1c-4.36-2.15-9.3-1.72-13.83-3.25-2.66-.89-4.3-2.64-6.15-4.63a12.71,12.71,0,0,0-5.72-3.74,12.08,12.08,0,0,0-6.23-.19c-2.23.53-4.17,1.8-6.29,2.61-5.29,2-10.42.1-14.19-3.81-3.11-3.22-6.17-6.26-10.4-8a13.85,13.85,0,0,0-11-.15c-4,1.83-6.8,5.5-10.59,7.71-4.49,2.63-9.86,2-14.82,2.8s-8.77,5-13.12,7.37a9.15,9.15,0,0,1-4.74,1.47,28.27,28.27,0,0,1-2.89-.4c-1.5-.19-2.92-.15-3.93,1.1C61.45,70.93,61.5,72.22,61.93,72.22Z" style="fill:#ebebeb"></path><path d="M108.34,173.78c6.53,0,116.5.72,123.41.5.49,0,.76-.74.27-1-4.36-2.16-9.3-1.72-13.83-3.25-2.66-.9-4.3-2.64-6.15-4.63a12.63,12.63,0,0,0-5.72-3.74,12.19,12.19,0,0,0-6.23-.2c-2.23.54-4.17,1.81-6.3,2.62-5.28,2-10.41.1-14.18-3.81-3.11-3.22-6.17-6.26-10.4-8a13.85,13.85,0,0,0-11-.15c-4,1.83-6.8,5.5-10.59,7.71-4.49,2.63-9.86,2-14.82,2.8s-8.77,5-13.12,7.37a9.15,9.15,0,0,1-4.74,1.47,25.77,25.77,0,0,1-2.89-.41c-1.5-.18-2.92-.14-3.93,1.11C107.86,172.49,107.91,173.78,108.34,173.78Z" style="fill:#ebebeb"></path><path d="M519.8,162.14c6.53,0,116.5.73,123.41.51.5,0,.76-.75.27-1-4.36-2.16-9.3-1.73-13.83-3.25-2.66-.9-4.3-2.64-6.14-4.64a12.79,12.79,0,0,0-5.73-3.74,12.08,12.08,0,0,0-6.23-.19c-2.23.53-4.17,1.81-6.29,2.61-5.29,2-10.42.1-14.19-3.81-3.11-3.22-6.17-6.26-10.4-8a13.81,13.81,0,0,0-11-.16c-4,1.83-6.8,5.51-10.59,7.72-4.49,2.62-9.86,2-14.82,2.79s-8.77,5-13.12,7.38a9.34,9.34,0,0,1-4.74,1.47c-1,0-1.93-.29-2.89-.41-1.5-.18-2.92-.14-3.93,1.11C519.32,160.85,519.37,162.14,519.8,162.14Z" style="fill:#ebebeb"></path><path d="M191.81,99.78c.12.37,173.31,0,171.13,0-1,0,1.51-1.49.54-2-5.64-2.8-11.81-2.88-18-3.44-3.58-.33-7.26-.85-10.48-2.54s-5.3-4.68-7.62-7.42A32.56,32.56,0,0,0,297.86,73.2c-12.32,1.93-22,11.31-34.36,13-7.41,1-14.42-1.83-21.66-2.84-6-.83-10.93.33-16.27,3-3.9,1.94-7.51,3.57-11.93,3.87-3.39.24-6.8-.15-10.19-.18a22.88,22.88,0,0,0-15,6C187.9,96.54,186.15,99.78,191.81,99.78Z" style="fill:#ebebeb"></path><rect x="211.18" y="121.27" width="58.34" height="305.8" transform="translate(480.71 548.33) rotate(180)" style="fill:#dbdbdb"></rect><rect x="249.13" y="131.2" width="11.34" height="11.68" transform="translate(509.59 274.07) rotate(180)" style="fill:#ebebeb"></rect><rect x="234.62" y="131.2" width="11.34" height="11.68" transform="translate(480.58 274.07) rotate(180)" style="fill:#ebebeb"></rect><rect x="249.13" y="151.02" width="11.34" height="11.68" transform="translate(509.59 313.72) rotate(180)" style="fill:#ebebeb"></rect><rect x="234.62" y="151.02" width="11.34" height="11.68" transform="translate(480.58 313.72) rotate(180)" style="fill:#ebebeb"></rect><rect x="249.13" y="170.85" width="11.34" height="11.68" transform="translate(509.59 353.37) rotate(180)" style="fill:#ebebeb"></rect><rect x="234.62" y="170.85" width="11.34" height="11.68" transform="translate(480.58 353.37) rotate(180)" style="fill:#ebebeb"></rect><rect x="249.13" y="190.67" width="11.34" height="11.68" transform="translate(509.59 393.02) rotate(180)" style="fill:#ebebeb"></rect><rect x="234.62" y="190.67" width="11.34" height="11.68" transform="translate(480.58 393.02) rotate(180)" style="fill:#ebebeb"></rect><rect x="249.13" y="210.49" width="11.34" height="11.68" transform="translate(509.59 432.67) rotate(180)" style="fill:#ebebeb"></rect><rect x="234.62" y="210.49" width="11.34" height="11.68" transform="translate(480.58 432.67) rotate(180)" style="fill:#ebebeb"></rect><rect x="249.13" y="230.32" width="11.34" height="11.68" transform="translate(509.59 472.31) rotate(180)" style="fill:#ebebeb"></rect><rect x="234.62" y="230.32" width="11.34" height="11.68" transform="translate(480.58 472.31) rotate(180)" style="fill:#ebebeb"></rect><rect x="249.13" y="250.14" width="11.34" height="11.68" transform="translate(509.59 511.96) rotate(180)" style="fill:#ebebeb"></rect><rect x="234.62" y="250.14" width="11.34" height="11.68" transform="translate(480.58 511.96) rotate(180)" style="fill:#ebebeb"></rect><rect x="249.13" y="269.97" width="11.34" height="11.68" transform="translate(509.59 551.61) rotate(180)" style="fill:#ebebeb"></rect><rect x="234.62" y="269.97" width="11.34" height="11.68" transform="translate(480.58 551.61) rotate(180)" style="fill:#ebebeb"></rect><rect x="249.13" y="289.79" width="11.34" height="11.68" transform="translate(509.59 591.26) rotate(180)" style="fill:#ebebeb"></rect><rect x="234.62" y="289.79" width="11.34" height="11.68" transform="translate(480.58 591.26) rotate(180)" style="fill:#ebebeb"></rect><rect x="249.13" y="309.62" width="11.34" height="11.68" transform="translate(509.59 630.91) rotate(180)" style="fill:#ebebeb"></rect><rect x="234.62" y="309.62" width="11.34" height="11.68" transform="translate(480.58 630.91) rotate(180)" style="fill:#ebebeb"></rect><rect x="249.13" y="329.44" width="11.34" height="11.68" transform="translate(509.59 670.56) rotate(180)" style="fill:#ebebeb"></rect><rect x="234.62" y="329.44" width="11.34" height="11.68" transform="translate(480.58 670.56) rotate(180)" style="fill:#ebebeb"></rect><rect x="249.13" y="349.26" width="11.34" height="11.68" transform="translate(509.59 710.2) rotate(180)" style="fill:#ebebeb"></rect><rect x="234.62" y="349.26" width="11.34" height="11.68" transform="translate(480.58 710.2) rotate(180)" style="fill:#ebebeb"></rect><rect x="249.13" y="369.09" width="11.34" height="11.68" transform="translate(509.59 749.85) rotate(180)" style="fill:#ebebeb"></rect><rect x="234.62" y="369.09" width="11.34" height="11.68" transform="translate(480.58 749.85) rotate(180)" style="fill:#ebebeb"></rect><rect x="249.13" y="388.91" width="11.34" height="11.68" transform="translate(509.59 789.5) rotate(180)" style="fill:#ebebeb"></rect><rect x="220.24" y="388.91" width="11.34" height="11.68" style="fill:#ebebeb"></rect><rect x="220.24" y="369.09" width="11.34" height="11.68" style="fill:#ebebeb"></rect><rect x="220.24" y="349.26" width="11.34" height="11.68" style="fill:#ebebeb"></rect><rect x="220.24" y="329.44" width="11.34" height="11.68" style="fill:#ebebeb"></rect><rect x="220.24" y="309.62" width="11.34" height="11.68" style="fill:#ebebeb"></rect><rect x="220.24" y="289.79" width="11.34" height="11.68" style="fill:#ebebeb"></rect><rect x="220.24" y="269.97" width="11.34" height="11.68" style="fill:#ebebeb"></rect><rect x="220.24" y="250.14" width="11.34" height="11.68" style="fill:#ebebeb"></rect><rect x="220.24" y="230.32" width="11.34" height="11.68" style="fill:#ebebeb"></rect><rect x="220.24" y="210.49" width="11.34" height="11.68" style="fill:#ebebeb"></rect><rect x="220.24" y="190.67" width="11.34" height="11.68" style="fill:#ebebeb"></rect><rect x="220.24" y="170.85" width="11.34" height="11.68" style="fill:#ebebeb"></rect><rect x="220.24" y="151.02" width="11.34" height="11.68" style="fill:#ebebeb"></rect><rect x="220.24" y="131.2" width="11.34" height="11.68" style="fill:#ebebeb"></rect><rect x="234.62" y="388.91" width="11.34" height="11.68" transform="translate(480.58 789.5) rotate(180)" style="fill:#ebebeb"></rect><rect x="165.19" y="121.27" width="46" height="305.8" transform="translate(376.37 548.33) rotate(180)" style="fill:#a6a6a6"></rect><rect x="169.93" y="388.91" width="9.36" height="11.68" style="fill:#c7c7c7"></rect><rect x="181.91" y="388.91" width="9.36" height="11.68" style="fill:#c7c7c7"></rect><rect x="169.93" y="369.09" width="9.36" height="11.68" style="fill:#c7c7c7"></rect><rect x="181.91" y="369.09" width="9.36" height="11.68" style="fill:#c7c7c7"></rect><rect x="169.93" y="349.26" width="9.36" height="11.68" style="fill:#c7c7c7"></rect><rect x="181.91" y="349.26" width="9.36" height="11.68" style="fill:#c7c7c7"></rect><rect x="169.93" y="329.44" width="9.36" height="11.68" style="fill:#c7c7c7"></rect><rect x="181.91" y="329.44" width="9.36" height="11.68" style="fill:#c7c7c7"></rect><rect x="169.93" y="309.62" width="9.36" height="11.68" style="fill:#c7c7c7"></rect><rect x="181.91" y="309.62" width="9.36" height="11.68" style="fill:#c7c7c7"></rect><rect x="169.93" y="289.79" width="9.36" height="11.68" style="fill:#c7c7c7"></rect><rect x="181.91" y="289.79" width="9.36" height="11.68" style="fill:#c7c7c7"></rect><rect x="169.93" y="269.97" width="9.36" height="11.68" style="fill:#c7c7c7"></rect><rect x="181.91" y="269.97" width="9.36" height="11.68" style="fill:#c7c7c7"></rect><rect x="169.93" y="250.14" width="9.36" height="11.68" style="fill:#c7c7c7"></rect><rect x="181.91" y="250.14" width="9.36" height="11.68" style="fill:#c7c7c7"></rect><rect x="169.93" y="230.32" width="9.36" height="11.68" style="fill:#c7c7c7"></rect><rect x="181.91" y="230.32" width="9.36" height="11.68" style="fill:#c7c7c7"></rect><rect x="169.93" y="210.49" width="9.36" height="11.68" style="fill:#c7c7c7"></rect><rect x="181.91" y="210.49" width="9.36" height="11.68" style="fill:#c7c7c7"></rect><rect x="169.93" y="190.67" width="9.36" height="11.68" style="fill:#c7c7c7"></rect><rect x="181.91" y="190.67" width="9.36" height="11.68" style="fill:#c7c7c7"></rect><rect x="169.93" y="170.85" width="9.36" height="11.68" style="fill:#c7c7c7"></rect><rect x="181.91" y="170.85" width="9.36" height="11.68" style="fill:#c7c7c7"></rect><rect x="169.93" y="151.02" width="9.36" height="11.68" style="fill:#c7c7c7"></rect><rect x="181.91" y="151.02" width="9.36" height="11.68" style="fill:#c7c7c7"></rect><rect x="169.93" y="131.2" width="9.36" height="11.68" style="fill:#c7c7c7"></rect><rect x="193.79" y="131.2" width="9.36" height="11.68" transform="translate(396.94 274.07) rotate(180)" style="fill:#c7c7c7"></rect><rect x="193.79" y="151.02" width="9.36" height="11.68" transform="translate(396.94 313.72) rotate(180)" style="fill:#c7c7c7"></rect><rect x="193.79" y="170.85" width="9.36" height="11.68" transform="translate(396.94 353.37) rotate(180)" style="fill:#c7c7c7"></rect><rect x="193.79" y="190.67" width="9.36" height="11.68" transform="translate(396.94 393.02) rotate(180)" style="fill:#c7c7c7"></rect><rect x="193.79" y="210.49" width="9.36" height="11.68" transform="translate(396.94 432.67) rotate(180)" style="fill:#c7c7c7"></rect><rect x="193.79" y="230.32" width="9.36" height="11.68" transform="translate(396.94 472.31) rotate(180)" style="fill:#c7c7c7"></rect><rect x="193.79" y="250.14" width="9.36" height="11.68" transform="translate(396.94 511.96) rotate(180)" style="fill:#c7c7c7"></rect><rect x="193.79" y="269.97" width="9.36" height="11.68" transform="translate(396.94 551.61) rotate(180)" style="fill:#c7c7c7"></rect><rect x="193.79" y="289.79" width="9.36" height="11.68" transform="translate(396.94 591.26) rotate(180)" style="fill:#c7c7c7"></rect><rect x="193.79" y="309.62" width="9.36" height="11.68" transform="translate(396.94 630.91) rotate(180)" style="fill:#c7c7c7"></rect><rect x="193.79" y="329.44" width="9.36" height="11.68" transform="translate(396.94 670.56) rotate(180)" style="fill:#c7c7c7"></rect><rect x="193.79" y="349.26" width="9.36" height="11.68" transform="translate(396.94 710.2) rotate(180)" style="fill:#c7c7c7"></rect><rect x="193.79" y="369.09" width="9.36" height="11.68" transform="translate(396.94 749.85) rotate(180)" style="fill:#c7c7c7"></rect><rect x="193.79" y="388.91" width="9.36" height="11.68" transform="translate(396.94 789.5) rotate(180)" style="fill:#c7c7c7"></rect><rect x="181.91" y="131.2" width="9.36" height="11.68" style="fill:#c7c7c7"></rect><rect x="530.55" y="123.16" width="65.08" height="303.91" transform="translate(1126.18 550.23) rotate(180)" style="fill:#ebebeb"></rect><rect x="530.55" y="116.51" width="66.64" height="6.65" transform="translate(1127.74 239.67) rotate(180)" style="fill:#c7c7c7"></rect><rect x="583.15" y="132.97" width="6.59" height="294.1" transform="translate(1172.89 560.04) rotate(180)" style="fill:#fff"></rect><rect x="571.47" y="132.97" width="6.59" height="294.1" transform="translate(1149.54 560.04) rotate(180)" style="fill:#fff"></rect><rect x="559.79" y="132.97" width="6.59" height="294.1" transform="translate(1126.18 560.04) rotate(180)" style="fill:#fff"></rect><rect x="548.11" y="132.97" width="6.59" height="294.1" transform="translate(1102.82 560.04) rotate(180)" style="fill:#fff"></rect><rect x="536.43" y="132.97" width="6.59" height="294.1" transform="translate(1079.46 560.04) rotate(180)" style="fill:#fff"></rect><rect x="583.15" y="141.38" width="6.59" height="13.13" transform="translate(1172.89 295.89) rotate(180)" style="fill:#ebebeb"></rect><rect x="571.47" y="141.38" width="6.59" height="13.13" transform="translate(1149.54 295.89) rotate(180)" style="fill:#ebebeb"></rect><rect x="559.79" y="141.38" width="6.59" height="13.13" transform="translate(1126.18 295.89) rotate(180)" style="fill:#ebebeb"></rect><rect x="548.11" y="141.38" width="6.59" height="13.13" transform="translate(1102.82 295.89) rotate(180)" style="fill:#ebebeb"></rect><rect x="536.43" y="141.38" width="6.59" height="13.13" transform="translate(1079.46 295.89) rotate(180)" style="fill:#ebebeb"></rect><rect x="583.15" y="162.72" width="6.59" height="13.13" transform="translate(1172.89 338.58) rotate(180)" style="fill:#ebebeb"></rect><rect x="571.47" y="162.72" width="6.59" height="13.13" transform="translate(1149.54 338.58) rotate(180)" style="fill:#ebebeb"></rect><rect x="559.79" y="162.72" width="6.59" height="13.13" transform="translate(1126.18 338.58) rotate(180)" style="fill:#ebebeb"></rect><rect x="548.11" y="162.72" width="6.59" height="13.13" transform="translate(1102.82 338.58) rotate(180)" style="fill:#ebebeb"></rect><rect x="536.43" y="162.72" width="6.59" height="13.13" transform="translate(1079.46 338.58) rotate(180)" style="fill:#ebebeb"></rect><rect x="583.15" y="184.07" width="6.59" height="13.13" transform="translate(1172.89 381.27) rotate(180)" style="fill:#ebebeb"></rect><rect x="571.47" y="184.07" width="6.59" height="13.13" transform="translate(1149.54 381.27) rotate(180)" style="fill:#ebebeb"></rect><rect x="559.79" y="184.07" width="6.59" height="13.13" transform="translate(1126.18 381.27) rotate(180)" style="fill:#ebebeb"></rect><rect x="548.11" y="184.07" width="6.59" height="13.13" transform="translate(1102.82 381.27) rotate(180)" style="fill:#ebebeb"></rect><rect x="536.43" y="184.07" width="6.59" height="13.13" transform="translate(1079.46 381.27) rotate(180)" style="fill:#ebebeb"></rect><rect x="583.15" y="205.42" width="6.59" height="13.13" transform="translate(1172.89 423.97) rotate(180)" style="fill:#ebebeb"></rect><rect x="571.47" y="205.42" width="6.59" height="13.13" transform="translate(1149.54 423.97) rotate(180)" style="fill:#ebebeb"></rect><rect x="559.79" y="205.42" width="6.59" height="13.13" transform="translate(1126.18 423.97) rotate(180)" style="fill:#ebebeb"></rect><rect x="548.11" y="205.42" width="6.59" height="13.13" transform="translate(1102.82 423.97) rotate(180)" style="fill:#ebebeb"></rect><rect x="536.43" y="205.42" width="6.59" height="13.13" transform="translate(1079.46 423.97) rotate(180)" style="fill:#ebebeb"></rect><rect x="583.15" y="226.76" width="6.59" height="13.13" transform="translate(1172.89 466.66) rotate(180)" style="fill:#ebebeb"></rect><rect x="571.47" y="226.76" width="6.59" height="13.13" transform="translate(1149.54 466.66) rotate(180)" style="fill:#ebebeb"></rect><rect x="559.79" y="226.76" width="6.59" height="13.13" transform="translate(1126.18 466.66) rotate(180)" style="fill:#ebebeb"></rect><rect x="548.11" y="226.76" width="6.59" height="13.13" transform="translate(1102.82 466.66) rotate(180)" style="fill:#ebebeb"></rect><rect x="536.43" y="226.76" width="6.59" height="13.13" transform="translate(1079.46 466.66) rotate(180)" style="fill:#ebebeb"></rect><rect x="583.15" y="248.11" width="6.59" height="13.13" transform="translate(1172.89 509.35) rotate(180)" style="fill:#ebebeb"></rect><rect x="571.47" y="248.11" width="6.59" height="13.13" transform="translate(1149.54 509.35) rotate(180)" style="fill:#ebebeb"></rect><rect x="559.79" y="248.11" width="6.59" height="13.13" transform="translate(1126.18 509.35) rotate(180)" style="fill:#ebebeb"></rect><rect x="548.11" y="248.11" width="6.59" height="13.13" transform="translate(1102.82 509.35) rotate(180)" style="fill:#ebebeb"></rect><rect x="536.43" y="248.11" width="6.59" height="13.13" transform="translate(1079.46 509.35) rotate(180)" style="fill:#ebebeb"></rect><rect x="583.15" y="269.46" width="6.59" height="13.13" transform="translate(1172.89 552.05) rotate(180)" style="fill:#ebebeb"></rect><rect x="571.47" y="269.46" width="6.59" height="13.13" transform="translate(1149.54 552.05) rotate(180)" style="fill:#ebebeb"></rect><rect x="559.79" y="269.46" width="6.59" height="13.13" transform="translate(1126.18 552.05) rotate(180)" style="fill:#ebebeb"></rect><rect x="548.11" y="269.46" width="6.59" height="13.13" transform="translate(1102.82 552.05) rotate(180)" style="fill:#ebebeb"></rect><rect x="536.43" y="269.46" width="6.59" height="13.13" transform="translate(1079.46 552.05) rotate(180)" style="fill:#ebebeb"></rect><rect x="583.15" y="290.8" width="6.59" height="13.13" transform="translate(1172.89 594.74) rotate(180)" style="fill:#ebebeb"></rect><rect x="571.47" y="290.8" width="6.59" height="13.13" transform="translate(1149.54 594.74) rotate(180)" style="fill:#ebebeb"></rect><rect x="559.79" y="290.8" width="6.59" height="13.13" transform="translate(1126.18 594.74) rotate(180)" style="fill:#ebebeb"></rect><rect x="548.11" y="290.8" width="6.59" height="13.13" transform="translate(1102.82 594.74) rotate(180)" style="fill:#ebebeb"></rect><rect x="536.43" y="290.8" width="6.59" height="13.13" transform="translate(1079.46 594.74) rotate(180)" style="fill:#ebebeb"></rect><rect x="583.15" y="312.15" width="6.59" height="13.13" transform="translate(1172.89 637.43) rotate(180)" style="fill:#ebebeb"></rect><rect x="571.47" y="312.15" width="6.59" height="13.13" transform="translate(1149.54 637.43) rotate(180)" style="fill:#ebebeb"></rect><rect x="559.79" y="312.15" width="6.59" height="13.13" transform="translate(1126.18 637.43) rotate(180)" style="fill:#ebebeb"></rect><rect x="548.11" y="312.15" width="6.59" height="13.13" transform="translate(1102.82 637.43) rotate(180)" style="fill:#ebebeb"></rect><rect x="536.43" y="312.15" width="6.59" height="13.13" transform="translate(1079.46 637.43) rotate(180)" style="fill:#ebebeb"></rect><rect x="583.15" y="333.5" width="6.59" height="13.13" transform="translate(1172.89 680.13) rotate(180)" style="fill:#ebebeb"></rect><rect x="571.47" y="333.5" width="6.59" height="13.13" transform="translate(1149.54 680.13) rotate(180)" style="fill:#ebebeb"></rect><rect x="559.79" y="333.5" width="6.59" height="13.13" transform="translate(1126.18 680.13) rotate(180)" style="fill:#ebebeb"></rect><rect x="548.11" y="333.5" width="6.59" height="13.13" transform="translate(1102.82 680.13) rotate(180)" style="fill:#ebebeb"></rect><rect x="536.43" y="333.5" width="6.59" height="13.13" transform="translate(1079.46 680.13) rotate(180)" style="fill:#ebebeb"></rect><rect x="583.15" y="354.84" width="6.59" height="13.13" transform="translate(1172.89 722.82) rotate(180)" style="fill:#ebebeb"></rect><rect x="571.47" y="354.84" width="6.59" height="13.13" transform="translate(1149.54 722.82) rotate(180)" style="fill:#ebebeb"></rect><rect x="559.79" y="354.84" width="6.59" height="13.13" transform="translate(1126.18 722.82) rotate(180)" style="fill:#ebebeb"></rect><rect x="548.11" y="354.84" width="6.59" height="13.13" transform="translate(1102.82 722.82) rotate(180)" style="fill:#ebebeb"></rect><rect x="536.43" y="354.84" width="6.59" height="13.13" transform="translate(1079.46 722.82) rotate(180)" style="fill:#ebebeb"></rect><rect x="583.15" y="376.19" width="6.59" height="13.13" transform="translate(1172.89 765.51) rotate(180)" style="fill:#ebebeb"></rect><rect x="571.47" y="376.19" width="6.59" height="13.13" transform="translate(1149.54 765.51) rotate(180)" style="fill:#ebebeb"></rect><rect x="559.79" y="376.19" width="6.59" height="13.13" transform="translate(1126.18 765.51) rotate(180)" style="fill:#ebebeb"></rect><rect x="548.11" y="376.19" width="6.59" height="13.13" transform="translate(1102.82 765.51) rotate(180)" style="fill:#ebebeb"></rect><rect x="536.43" y="376.19" width="6.59" height="13.13" transform="translate(1079.46 765.51) rotate(180)" style="fill:#ebebeb"></rect><rect x="583.15" y="397.54" width="6.59" height="13.13" transform="translate(1172.89 808.2) rotate(180)" style="fill:#ebebeb"></rect><rect x="571.47" y="397.54" width="6.59" height="13.13" transform="translate(1149.54 808.2) rotate(180)" style="fill:#ebebeb"></rect><rect x="559.79" y="397.54" width="6.59" height="13.13" transform="translate(1126.18 808.2) rotate(180)" style="fill:#ebebeb"></rect><rect x="548.11" y="397.54" width="6.59" height="13.13" transform="translate(1102.82 808.2) rotate(180)" style="fill:#ebebeb"></rect><rect x="536.43" y="397.54" width="6.59" height="13.13" transform="translate(1079.46 808.2) rotate(180)" style="fill:#ebebeb"></rect><rect x="583.15" y="418.88" width="6.59" height="8.19" transform="translate(1172.89 845.95) rotate(180)" style="fill:#ebebeb"></rect><rect x="571.47" y="418.88" width="6.59" height="8.19" transform="translate(1149.54 845.95) rotate(180)" style="fill:#ebebeb"></rect><rect x="559.79" y="418.88" width="6.59" height="8.19" transform="translate(1126.18 845.95) rotate(180)" style="fill:#ebebeb"></rect><rect x="548.11" y="418.88" width="6.59" height="8.19" transform="translate(1102.82 845.95) rotate(180)" style="fill:#ebebeb"></rect><rect x="536.43" y="418.88" width="6.59" height="8.19" transform="translate(1079.46 845.95) rotate(180)" style="fill:#ebebeb"></rect><rect x="488.77" y="123.16" width="41.78" height="303.91" transform="translate(1019.32 550.23) rotate(180)" style="fill:#dbdbdb"></rect><rect x="486.96" y="116.51" width="43.59" height="6.65" transform="translate(1017.51 239.67) rotate(180)" style="fill:#c7c7c7"></rect><rect x="518.07" y="132.97" width="6.59" height="294.1" transform="translate(1042.74 560.04) rotate(180)" style="fill:#c7c7c7"></rect><rect x="506.4" y="132.97" width="6.59" height="294.1" transform="translate(1019.38 560.04) rotate(180)" style="fill:#c7c7c7"></rect><rect x="494.72" y="132.97" width="6.59" height="294.1" transform="translate(996.03 560.04) rotate(180)" style="fill:#c7c7c7"></rect><rect x="518.07" y="141.38" width="6.59" height="13.13" transform="translate(1042.74 295.89) rotate(180)" style="fill:#dbdbdb"></rect><rect x="506.4" y="141.38" width="6.59" height="13.13" transform="translate(1019.38 295.89) rotate(180)" style="fill:#dbdbdb"></rect><rect x="494.72" y="141.38" width="6.59" height="13.13" transform="translate(996.03 295.89) rotate(180)" style="fill:#dbdbdb"></rect><rect x="518.07" y="162.72" width="6.59" height="13.13" transform="translate(1042.74 338.58) rotate(180)" style="fill:#dbdbdb"></rect><rect x="506.4" y="162.72" width="6.59" height="13.13" transform="translate(1019.38 338.58) rotate(180)" style="fill:#dbdbdb"></rect><rect x="494.72" y="162.72" width="6.59" height="13.13" transform="translate(996.03 338.58) rotate(180)" style="fill:#dbdbdb"></rect><rect x="518.07" y="184.07" width="6.59" height="13.13" transform="translate(1042.74 381.27) rotate(180)" style="fill:#dbdbdb"></rect><rect x="506.4" y="184.07" width="6.59" height="13.13" transform="translate(1019.38 381.27) rotate(180)" style="fill:#dbdbdb"></rect><rect x="494.72" y="184.07" width="6.59" height="13.13" transform="translate(996.03 381.27) rotate(180)" style="fill:#dbdbdb"></rect><rect x="518.07" y="205.42" width="6.59" height="13.13" transform="translate(1042.74 423.97) rotate(180)" style="fill:#dbdbdb"></rect><rect x="506.4" y="205.42" width="6.59" height="13.13" transform="translate(1019.38 423.97) rotate(180)" style="fill:#dbdbdb"></rect><rect x="494.72" y="205.42" width="6.59" height="13.13" transform="translate(996.03 423.97) rotate(180)" style="fill:#dbdbdb"></rect><rect x="518.07" y="226.76" width="6.59" height="13.13" transform="translate(1042.74 466.66) rotate(180)" style="fill:#dbdbdb"></rect><rect x="506.4" y="226.76" width="6.59" height="13.13" transform="translate(1019.38 466.66) rotate(180)" style="fill:#dbdbdb"></rect><rect x="494.72" y="226.76" width="6.59" height="13.13" transform="translate(996.03 466.66) rotate(180)" style="fill:#dbdbdb"></rect><rect x="518.07" y="248.11" width="6.59" height="13.13" transform="translate(1042.74 509.35) rotate(180)" style="fill:#dbdbdb"></rect><rect x="506.4" y="248.11" width="6.59" height="13.13" transform="translate(1019.38 509.35) rotate(180)" style="fill:#dbdbdb"></rect><rect x="494.72" y="248.11" width="6.59" height="13.13" transform="translate(996.03 509.35) rotate(180)" style="fill:#dbdbdb"></rect><rect x="518.07" y="269.46" width="6.59" height="13.13" transform="translate(1042.74 552.05) rotate(180)" style="fill:#dbdbdb"></rect><rect x="506.4" y="269.46" width="6.59" height="13.13" transform="translate(1019.38 552.05) rotate(180)" style="fill:#dbdbdb"></rect><rect x="494.72" y="269.46" width="6.59" height="13.13" transform="translate(996.03 552.05) rotate(180)" style="fill:#dbdbdb"></rect><rect x="518.07" y="290.8" width="6.59" height="13.13" transform="translate(1042.74 594.74) rotate(180)" style="fill:#dbdbdb"></rect><rect x="506.4" y="290.8" width="6.59" height="13.13" transform="translate(1019.38 594.74) rotate(180)" style="fill:#dbdbdb"></rect><rect x="494.72" y="290.8" width="6.59" height="13.13" transform="translate(996.03 594.74) rotate(180)" style="fill:#dbdbdb"></rect><rect x="518.07" y="312.15" width="6.59" height="13.13" transform="translate(1042.74 637.43) rotate(180)" style="fill:#dbdbdb"></rect><rect x="506.4" y="312.15" width="6.59" height="13.13" transform="translate(1019.38 637.43) rotate(180)" style="fill:#dbdbdb"></rect><rect x="494.72" y="312.15" width="6.59" height="13.13" transform="translate(996.03 637.43) rotate(180)" style="fill:#dbdbdb"></rect><rect x="518.07" y="333.5" width="6.59" height="13.13" transform="translate(1042.74 680.13) rotate(180)" style="fill:#dbdbdb"></rect><rect x="506.4" y="333.5" width="6.59" height="13.13" transform="translate(1019.38 680.13) rotate(180)" style="fill:#dbdbdb"></rect><rect x="494.72" y="333.5" width="6.59" height="13.13" transform="translate(996.03 680.13) rotate(180)" style="fill:#dbdbdb"></rect><rect x="518.07" y="354.84" width="6.59" height="13.13" transform="translate(1042.74 722.82) rotate(180)" style="fill:#dbdbdb"></rect><rect x="506.4" y="354.84" width="6.59" height="13.13" transform="translate(1019.38 722.82) rotate(180)" style="fill:#dbdbdb"></rect><rect x="494.72" y="354.84" width="6.59" height="13.13" transform="translate(996.03 722.82) rotate(180)" style="fill:#dbdbdb"></rect><rect x="518.07" y="376.19" width="6.59" height="13.13" transform="translate(1042.74 765.51) rotate(180)" style="fill:#dbdbdb"></rect><rect x="506.4" y="376.19" width="6.59" height="13.13" transform="translate(1019.38 765.51) rotate(180)" style="fill:#dbdbdb"></rect><rect x="494.72" y="376.19" width="6.59" height="13.13" transform="translate(996.03 765.51) rotate(180)" style="fill:#dbdbdb"></rect><rect x="518.07" y="397.54" width="6.59" height="13.13" transform="translate(1042.74 808.2) rotate(180)" style="fill:#dbdbdb"></rect><rect x="506.4" y="397.54" width="6.59" height="13.13" transform="translate(1019.38 808.2) rotate(180)" style="fill:#dbdbdb"></rect><rect x="494.72" y="397.54" width="6.59" height="13.13" transform="translate(996.03 808.2) rotate(180)" style="fill:#dbdbdb"></rect><rect x="518.07" y="418.88" width="6.59" height="8.19" transform="translate(1042.74 845.95) rotate(180)" style="fill:#dbdbdb"></rect><rect x="506.4" y="418.88" width="6.59" height="8.19" transform="translate(1019.38 845.95) rotate(180)" style="fill:#dbdbdb"></rect><rect x="494.72" y="418.88" width="6.59" height="8.19" transform="translate(996.03 845.95) rotate(180)" style="fill:#dbdbdb"></rect><rect x="613.45" y="223.22" width="68.72" height="203.85" transform="translate(1295.62 650.29) rotate(180)" style="fill:#ebebeb"></rect><rect x="613.45" y="205.93" width="58.94" height="17.28" transform="translate(1285.85 429.15) rotate(180)" style="fill:#c7c7c7"></rect><rect x="620.99" y="232.24" width="53.65" height="194.83" transform="translate(1295.62 659.31) rotate(180)" style="fill:#dbdbdb"></rect><rect x="620.99" y="250.83" width="53.65" height="4.6" transform="translate(1295.62 506.27) rotate(180)" style="fill:#fff"></rect><rect x="620.99" y="269.9" width="53.65" height="4.6" transform="translate(1295.62 544.41) rotate(180)" style="fill:#fff"></rect><rect x="620.99" y="288.97" width="53.65" height="4.6" transform="translate(1295.62 582.55) rotate(180)" style="fill:#fff"></rect><rect x="620.99" y="308.04" width="53.65" height="4.6" transform="translate(1295.62 620.69) rotate(180)" style="fill:#fff"></rect><rect x="620.99" y="327.11" width="53.65" height="4.6" transform="translate(1295.62 658.83) rotate(180)" style="fill:#fff"></rect><rect x="620.99" y="346.18" width="53.65" height="4.6" transform="translate(1295.62 696.97) rotate(180)" style="fill:#fff"></rect><rect x="620.99" y="365.25" width="53.65" height="4.6" transform="translate(1295.62 735.11) rotate(180)" style="fill:#fff"></rect><rect x="620.99" y="384.32" width="53.65" height="4.6" transform="translate(1295.62 773.25) rotate(180)" style="fill:#fff"></rect><rect x="620.99" y="403.39" width="53.65" height="4.6" transform="translate(1295.62 811.39) rotate(180)" style="fill:#fff"></rect><rect x="620.99" y="422.46" width="53.65" height="4.6" transform="translate(1295.62 849.53) rotate(180)" style="fill:#fff"></rect><rect x="570.41" y="223.22" width="43.04" height="203.85" transform="translate(1183.86 650.29) rotate(180)" style="fill:#dbdbdb"></rect><rect x="576.87" y="205.93" width="36.58" height="17.28" transform="translate(1190.32 429.15) rotate(180)" style="fill:#a6a6a6"></rect><rect x="574.42" y="232.24" width="33.09" height="194.83" transform="translate(1181.94 659.31) rotate(180)" style="fill:#c7c7c7"></rect><rect x="574.42" y="250.83" width="33.09" height="4.6" transform="translate(1181.94 506.27) rotate(180)" style="fill:#fff"></rect><rect x="574.42" y="269.9" width="33.09" height="4.6" transform="translate(1181.94 544.41) rotate(180)" style="fill:#fff"></rect><rect x="574.42" y="288.97" width="33.09" height="4.6" transform="translate(1181.94 582.55) rotate(180)" style="fill:#fff"></rect><rect x="574.42" y="308.04" width="33.09" height="4.6" transform="translate(1181.94 620.69) rotate(180)" style="fill:#fff"></rect><rect x="574.42" y="327.11" width="33.09" height="4.6" transform="translate(1181.94 658.83) rotate(180)" style="fill:#fff"></rect><rect x="574.42" y="346.18" width="33.09" height="4.6" transform="translate(1181.94 696.97) rotate(180)" style="fill:#fff"></rect><rect x="574.42" y="365.25" width="33.09" height="4.6" transform="translate(1181.94 735.11) rotate(180)" style="fill:#fff"></rect><rect x="574.42" y="384.32" width="33.09" height="4.6" transform="translate(1181.94 773.25) rotate(180)" style="fill:#fff"></rect><rect x="574.42" y="403.39" width="33.09" height="4.6" transform="translate(1181.94 811.39) rotate(180)" style="fill:#fff"></rect><rect x="574.42" y="422.46" width="33.09" height="4.6" transform="translate(1181.94 849.53) rotate(180)" style="fill:#fff"></rect><rect x="447.61" y="223.22" width="58.23" height="203.85" transform="translate(953.44 650.29) rotate(180)" style="fill:#dbdbdb"></rect><rect x="486.37" y="240.86" width="10.3" height="12.49" transform="translate(983.05 494.22) rotate(180)" style="fill:#c7c7c7"></rect><rect x="486.37" y="267.54" width="10.3" height="12.49" transform="translate(983.05 547.57) rotate(180)" style="fill:#c7c7c7"></rect><rect x="486.37" y="294.22" width="10.3" height="12.49" transform="translate(983.05 600.92) rotate(180)" style="fill:#c7c7c7"></rect><rect x="486.37" y="320.89" width="10.3" height="12.49" transform="translate(983.05 654.27) rotate(180)" style="fill:#c7c7c7"></rect><rect x="486.37" y="347.57" width="10.3" height="12.49" transform="translate(983.05 707.62) rotate(180)" style="fill:#c7c7c7"></rect><rect x="486.37" y="374.24" width="10.3" height="12.49" transform="translate(983.05 760.98) rotate(180)" style="fill:#c7c7c7"></rect><rect x="486.37" y="400.92" width="10.3" height="12.49" transform="translate(983.05 814.33) rotate(180)" style="fill:#c7c7c7"></rect><rect x="471.55" y="240.86" width="10.3" height="12.49" transform="translate(953.41 494.22) rotate(180)" style="fill:#c7c7c7"></rect><rect x="471.55" y="267.54" width="10.3" height="12.49" transform="translate(953.41 547.57) rotate(180)" style="fill:#c7c7c7"></rect><rect x="471.55" y="294.22" width="10.3" height="12.49" transform="translate(953.41 600.92) rotate(180)" style="fill:#c7c7c7"></rect><rect x="471.55" y="320.89" width="10.3" height="12.49" transform="translate(953.41 654.27) rotate(180)" style="fill:#c7c7c7"></rect><rect x="471.55" y="347.57" width="10.3" height="12.49" transform="translate(953.41 707.62) rotate(180)" style="fill:#c7c7c7"></rect><rect x="471.55" y="374.24" width="10.3" height="12.49" transform="translate(953.41 760.98) rotate(180)" style="fill:#c7c7c7"></rect><rect x="471.55" y="400.92" width="10.3" height="12.49" transform="translate(953.41 814.33) rotate(180)" style="fill:#c7c7c7"></rect><rect x="456.76" y="240.86" width="10.3" height="12.49" transform="translate(923.83 494.22) rotate(180)" style="fill:#c7c7c7"></rect><rect x="456.76" y="267.54" width="10.3" height="12.49" transform="translate(923.83 547.57) rotate(180)" style="fill:#c7c7c7"></rect><rect x="456.76" y="294.22" width="10.3" height="12.49" transform="translate(923.83 600.92) rotate(180)" style="fill:#c7c7c7"></rect><rect x="456.76" y="320.89" width="10.3" height="12.49" transform="translate(923.83 654.27) rotate(180)" style="fill:#c7c7c7"></rect><rect x="456.76" y="347.57" width="10.3" height="12.49" transform="translate(923.83 707.62) rotate(180)" style="fill:#c7c7c7"></rect><rect x="456.76" y="374.24" width="10.3" height="12.49" transform="translate(923.83 760.98) rotate(180)" style="fill:#c7c7c7"></rect><rect x="456.76" y="400.92" width="10.3" height="12.49" transform="translate(923.83 814.33) rotate(180)" style="fill:#c7c7c7"></rect><rect x="406.76" y="223.22" width="40.85" height="203.85" transform="translate(854.36 650.29) rotate(180)" style="fill:#a6a6a6"></rect><rect x="410.94" y="398.93" width="8.39" height="12.49" style="fill:#c7c7c7"></rect><rect x="410.94" y="372.25" width="8.39" height="12.49" style="fill:#c7c7c7"></rect><rect x="410.94" y="345.58" width="8.39" height="12.49" style="fill:#c7c7c7"></rect><rect x="410.94" y="318.9" width="8.39" height="12.49" style="fill:#c7c7c7"></rect><rect x="410.94" y="292.22" width="8.39" height="12.49" style="fill:#c7c7c7"></rect><rect x="410.94" y="265.55" width="8.39" height="12.49" style="fill:#c7c7c7"></rect><rect x="410.94" y="238.87" width="8.39" height="12.49" style="fill:#c7c7c7"></rect><rect x="423" y="398.93" width="8.39" height="12.49" style="fill:#c7c7c7"></rect><rect x="423" y="372.25" width="8.39" height="12.49" style="fill:#c7c7c7"></rect><rect x="423" y="345.58" width="8.39" height="12.49" style="fill:#c7c7c7"></rect><rect x="423" y="318.9" width="8.39" height="12.49" style="fill:#c7c7c7"></rect><rect x="423" y="292.22" width="8.39" height="12.49" style="fill:#c7c7c7"></rect><rect x="423" y="265.55" width="8.39" height="12.49" style="fill:#c7c7c7"></rect><rect x="423" y="238.87" width="8.39" height="12.49" style="fill:#c7c7c7"></rect><rect x="435.04" y="398.93" width="8.39" height="12.49" style="fill:#c7c7c7"></rect><rect x="435.04" y="372.25" width="8.39" height="12.49" style="fill:#c7c7c7"></rect><rect x="435.04" y="345.58" width="8.39" height="12.49" style="fill:#c7c7c7"></rect><rect x="435.04" y="318.9" width="8.39" height="12.49" style="fill:#c7c7c7"></rect><rect x="435.04" y="292.22" width="8.39" height="12.49" style="fill:#c7c7c7"></rect><rect x="435.04" y="265.55" width="8.39" height="12.49" style="fill:#c7c7c7"></rect><rect x="435.04" y="238.87" width="8.39" height="12.49" style="fill:#c7c7c7"></rect><rect x="124.49" y="170.85" width="36.7" height="43.35" transform="translate(285.68 385.05) rotate(180)" style="fill:#dbdbdb"></rect><rect x="101.22" y="170.85" width="23.27" height="44.94" transform="translate(225.7 386.64) rotate(180)" style="fill:#c7c7c7"></rect><rect x="99.67" y="189.99" width="23.1" height="25.8" transform="translate(222.43 405.78) rotate(180)" style="fill:#dbdbdb"></rect><rect x="85.26" y="189.99" width="14.4" height="25.8" transform="translate(184.93 405.78) rotate(180)" style="fill:#c7c7c7"></rect><rect x="115.92" y="211.38" width="59.35" height="215.69" transform="translate(291.18 638.45) rotate(180)" style="fill:#ebebeb"></rect><rect x="149.82" y="220.66" width="18.66" height="7.63" transform="translate(318.3 448.94) rotate(180)" style="fill:#fff"></rect><rect x="125.95" y="220.66" width="18.66" height="7.63" transform="translate(270.56 448.94) rotate(180)" style="fill:#fff"></rect><rect x="149.82" y="233.6" width="18.66" height="7.63" transform="translate(318.3 474.83) rotate(180)" style="fill:#fff"></rect><rect x="125.95" y="233.6" width="18.66" height="7.63" transform="translate(270.56 474.83) rotate(180)" style="fill:#fff"></rect><rect x="149.82" y="246.55" width="18.66" height="7.63" transform="translate(318.3 500.72) rotate(180)" style="fill:#fff"></rect><rect x="125.95" y="246.55" width="18.66" height="7.63" transform="translate(270.56 500.72) rotate(180)" style="fill:#fff"></rect><rect x="149.82" y="259.49" width="18.66" height="7.63" transform="translate(318.3 526.61) rotate(180)" style="fill:#fff"></rect><rect x="125.95" y="259.49" width="18.66" height="7.63" transform="translate(270.56 526.61) rotate(180)" style="fill:#fff"></rect><rect x="149.82" y="272.44" width="18.66" height="7.63" transform="translate(318.3 552.5) rotate(180)" style="fill:#fff"></rect><rect x="125.95" y="272.44" width="18.66" height="7.63" transform="translate(270.56 552.5) rotate(180)" style="fill:#fff"></rect><rect x="149.82" y="285.39" width="18.66" height="7.63" transform="translate(318.3 578.4) rotate(180)" style="fill:#fff"></rect><rect x="125.95" y="285.39" width="18.66" height="7.63" transform="translate(270.56 578.4) rotate(180)" style="fill:#fff"></rect><rect x="149.82" y="298.33" width="18.66" height="7.63" transform="translate(318.3 604.29) rotate(180)" style="fill:#fff"></rect><rect x="125.95" y="298.33" width="18.66" height="7.63" transform="translate(270.56 604.29) rotate(180)" style="fill:#fff"></rect><rect x="149.82" y="311.28" width="18.66" height="7.63" transform="translate(318.3 630.18) rotate(180)" style="fill:#fff"></rect><rect x="125.95" y="311.28" width="18.66" height="7.63" transform="translate(270.56 630.18) rotate(180)" style="fill:#fff"></rect><rect x="149.82" y="324.22" width="18.66" height="7.63" transform="translate(318.3 656.07) rotate(180)" style="fill:#fff"></rect><rect x="125.95" y="324.22" width="18.66" height="7.63" transform="translate(270.56 656.07) rotate(180)" style="fill:#fff"></rect><rect x="149.82" y="337.17" width="18.66" height="7.63" transform="translate(318.3 681.97) rotate(180)" style="fill:#fff"></rect><rect x="125.95" y="337.17" width="18.66" height="7.63" transform="translate(270.56 681.97) rotate(180)" style="fill:#fff"></rect><rect x="149.82" y="350.12" width="18.66" height="7.63" transform="translate(318.3 707.86) rotate(180)" style="fill:#fff"></rect><rect x="125.95" y="350.12" width="18.66" height="7.63" transform="translate(270.56 707.86) rotate(180)" style="fill:#fff"></rect><rect x="149.82" y="363.06" width="18.66" height="7.63" transform="translate(318.3 733.75) rotate(180)" style="fill:#fff"></rect><rect x="125.95" y="363.06" width="18.66" height="7.63" transform="translate(270.56 733.75) rotate(180)" style="fill:#fff"></rect><rect x="149.82" y="376.01" width="18.66" height="7.63" transform="translate(318.3 759.64) rotate(180)" style="fill:#fff"></rect><rect x="125.95" y="376.01" width="18.66" height="7.63" transform="translate(270.56 759.64) rotate(180)" style="fill:#fff"></rect><rect x="149.82" y="388.95" width="18.66" height="7.63" transform="translate(318.3 785.53) rotate(180)" style="fill:#fff"></rect><rect x="125.95" y="388.95" width="18.66" height="7.63" transform="translate(270.56 785.53) rotate(180)" style="fill:#fff"></rect><rect x="67.83" y="211.38" width="48.09" height="215.69" transform="translate(183.75 638.45) rotate(180)" style="fill:#c7c7c7"></rect><rect x="72.65" y="388.95" width="15.32" height="7.63" style="fill:#ebebeb"></rect><rect x="92.25" y="388.95" width="15.32" height="7.63" style="fill:#ebebeb"></rect><rect x="72.65" y="376.01" width="15.32" height="7.63" style="fill:#ebebeb"></rect><rect x="92.25" y="376.01" width="15.32" height="7.63" style="fill:#ebebeb"></rect><rect x="72.65" y="363.06" width="15.32" height="7.63" style="fill:#ebebeb"></rect><rect x="92.25" y="363.06" width="15.32" height="7.63" style="fill:#ebebeb"></rect><rect x="72.65" y="350.12" width="15.32" height="7.63" style="fill:#ebebeb"></rect><rect x="92.25" y="350.12" width="15.32" height="7.63" style="fill:#ebebeb"></rect><rect x="72.65" y="337.17" width="15.32" height="7.63" style="fill:#ebebeb"></rect><rect x="92.25" y="337.17" width="15.32" height="7.63" style="fill:#ebebeb"></rect><rect x="72.65" y="324.22" width="15.32" height="7.63" style="fill:#ebebeb"></rect><rect x="92.25" y="324.22" width="15.32" height="7.63" style="fill:#ebebeb"></rect><rect x="72.65" y="311.28" width="15.32" height="7.63" style="fill:#ebebeb"></rect><rect x="92.25" y="311.28" width="15.32" height="7.63" style="fill:#ebebeb"></rect><rect x="72.65" y="298.33" width="15.32" height="7.63" style="fill:#ebebeb"></rect><rect x="92.25" y="298.33" width="15.32" height="7.63" style="fill:#ebebeb"></rect><rect x="72.65" y="285.39" width="15.32" height="7.63" style="fill:#ebebeb"></rect><rect x="92.25" y="285.39" width="15.32" height="7.63" style="fill:#ebebeb"></rect><rect x="72.65" y="272.44" width="15.32" height="7.63" style="fill:#ebebeb"></rect><rect x="92.25" y="272.44" width="15.32" height="7.63" style="fill:#ebebeb"></rect><rect x="72.65" y="259.49" width="15.32" height="7.63" style="fill:#ebebeb"></rect><rect x="92.25" y="259.49" width="15.32" height="7.63" style="fill:#ebebeb"></rect><rect x="72.65" y="246.55" width="15.32" height="7.63" style="fill:#ebebeb"></rect><rect x="92.25" y="246.55" width="15.32" height="7.63" style="fill:#ebebeb"></rect><rect x="72.65" y="233.6" width="15.32" height="7.63" style="fill:#ebebeb"></rect><rect x="92.25" y="233.6" width="15.32" height="7.63" style="fill:#ebebeb"></rect><rect x="72.65" y="220.66" width="15.32" height="7.63" style="fill:#ebebeb"></rect><rect x="92.25" y="220.66" width="15.32" height="7.63" style="fill:#ebebeb"></rect><rect x="290" y="286.53" width="70" height="140.54" transform="translate(650 713.59) rotate(180)" style="fill:#c7c7c7"></rect><rect x="336.6" y="298.69" width="12.39" height="8.61" transform="translate(685.6 605.99) rotate(180)" style="fill:#dbdbdb"></rect><rect x="336.6" y="317.08" width="12.39" height="8.61" transform="translate(685.6 642.77) rotate(180)" style="fill:#dbdbdb"></rect><rect x="336.6" y="335.47" width="12.39" height="8.61" transform="translate(685.6 679.56) rotate(180)" style="fill:#dbdbdb"></rect><rect x="336.6" y="353.87" width="12.39" height="8.61" transform="translate(685.6 716.34) rotate(180)" style="fill:#dbdbdb"></rect><rect x="336.6" y="372.26" width="12.39" height="8.61" transform="translate(685.6 753.12) rotate(180)" style="fill:#dbdbdb"></rect><rect x="336.6" y="390.65" width="12.39" height="8.61" transform="translate(685.6 789.91) rotate(180)" style="fill:#dbdbdb"></rect><rect x="336.6" y="409.04" width="12.39" height="8.61" transform="translate(685.6 826.69) rotate(180)" style="fill:#dbdbdb"></rect><rect x="318.79" y="298.69" width="12.39" height="8.61" transform="translate(649.96 605.99) rotate(180)" style="fill:#dbdbdb"></rect><rect x="318.79" y="317.08" width="12.39" height="8.61" transform="translate(649.96 642.77) rotate(180)" style="fill:#dbdbdb"></rect><rect x="318.79" y="335.47" width="12.39" height="8.61" transform="translate(649.96 679.56) rotate(180)" style="fill:#dbdbdb"></rect><rect x="318.79" y="353.87" width="12.39" height="8.61" transform="translate(649.96 716.34) rotate(180)" style="fill:#dbdbdb"></rect><rect x="318.79" y="372.26" width="12.39" height="8.61" transform="translate(649.96 753.12) rotate(180)" style="fill:#dbdbdb"></rect><rect x="318.79" y="390.65" width="12.39" height="8.61" transform="translate(649.96 789.91) rotate(180)" style="fill:#dbdbdb"></rect><rect x="318.79" y="409.04" width="12.39" height="8.61" transform="translate(649.96 826.69) rotate(180)" style="fill:#dbdbdb"></rect><rect x="301.01" y="298.69" width="12.39" height="8.61" transform="translate(614.41 605.99) rotate(180)" style="fill:#dbdbdb"></rect><rect x="301.01" y="317.08" width="12.39" height="8.61" transform="translate(614.41 642.77) rotate(180)" style="fill:#dbdbdb"></rect><rect x="301.01" y="335.47" width="12.39" height="8.61" transform="translate(614.41 679.56) rotate(180)" style="fill:#dbdbdb"></rect><rect x="301.01" y="353.87" width="12.39" height="8.61" transform="translate(614.41 716.34) rotate(180)" style="fill:#dbdbdb"></rect><rect x="301.01" y="372.26" width="12.39" height="8.61" transform="translate(614.41 753.12) rotate(180)" style="fill:#dbdbdb"></rect><rect x="301.01" y="390.65" width="12.39" height="8.61" transform="translate(614.41 789.91) rotate(180)" style="fill:#dbdbdb"></rect><rect x="301.01" y="409.04" width="12.39" height="8.61" transform="translate(614.41 826.69) rotate(180)" style="fill:#dbdbdb"></rect><rect x="290" y="271.88" width="46.6" height="14.64" transform="translate(626.61 558.41) rotate(180)" style="fill:#dbdbdb"></rect><rect x="290" y="262.82" width="29.55" height="9.07" transform="translate(609.55 534.7) rotate(180)" style="fill:#ebebeb"></rect><rect x="240.89" y="286.53" width="49.11" height="140.54" transform="translate(530.89 713.59) rotate(180)" style="fill:#a6a6a6"></rect><rect x="245.92" y="407.67" width="10.08" height="8.61" style="fill:#c7c7c7"></rect><rect x="245.92" y="389.27" width="10.08" height="8.61" style="fill:#c7c7c7"></rect><rect x="245.92" y="370.88" width="10.08" height="8.61" style="fill:#c7c7c7"></rect><rect x="245.92" y="352.49" width="10.08" height="8.61" style="fill:#c7c7c7"></rect><rect x="245.92" y="334.1" width="10.08" height="8.61" style="fill:#c7c7c7"></rect><rect x="245.92" y="315.71" width="10.08" height="8.61" style="fill:#c7c7c7"></rect><rect x="245.92" y="297.32" width="10.08" height="8.61" style="fill:#c7c7c7"></rect><rect x="260.42" y="407.67" width="10.08" height="8.61" style="fill:#c7c7c7"></rect><rect x="260.42" y="389.27" width="10.08" height="8.61" style="fill:#c7c7c7"></rect><rect x="260.42" y="370.88" width="10.08" height="8.61" style="fill:#c7c7c7"></rect><rect x="260.42" y="352.49" width="10.08" height="8.61" style="fill:#c7c7c7"></rect><rect x="260.42" y="334.1" width="10.08" height="8.61" style="fill:#c7c7c7"></rect><rect x="260.42" y="315.71" width="10.08" height="8.61" style="fill:#c7c7c7"></rect><rect x="260.42" y="297.32" width="10.08" height="8.61" style="fill:#c7c7c7"></rect><rect x="274.89" y="407.67" width="10.08" height="8.61" style="fill:#c7c7c7"></rect><rect x="274.89" y="389.27" width="10.08" height="8.61" style="fill:#c7c7c7"></rect><rect x="274.89" y="370.88" width="10.08" height="8.61" style="fill:#c7c7c7"></rect><rect x="274.89" y="352.49" width="10.08" height="8.61" style="fill:#c7c7c7"></rect><rect x="274.89" y="334.1" width="10.08" height="8.61" style="fill:#c7c7c7"></rect><rect x="274.89" y="315.71" width="10.08" height="8.61" style="fill:#c7c7c7"></rect><rect x="274.89" y="297.32" width="10.08" height="8.61" style="fill:#c7c7c7"></rect><rect x="248.33" y="271.88" width="41.67" height="14.64" transform="translate(538.33 558.41) rotate(180)" style="fill:#c7c7c7"></rect><rect x="267.42" y="262.82" width="22.58" height="9.07" transform="translate(557.42 534.7) rotate(180)" style="fill:#dbdbdb"></rect></g><g id="freepik--Shadow--inject-79"><ellipse cx="375" cy="450.39" rx="257.31" ry="14.59" style="fill:#ebebeb"></ellipse></g><g id="freepik--Floor--inject-79"><path d="M58.37,427.07c202.85-.61,430.41-.62,633.26,0-202.85.62-430.41.61-633.26,0Z" style="fill:#263238"></path></g><g id="freepik--Car--inject-79"><path d="M96.54,376.74H163s-32.81-84.52-51.78-84.52S96.54,376.74,96.54,376.74Z" style="fill:#263238"></path><path d="M96.54,376.74H163s-32.81-84.52-51.78-84.52S96.54,376.74,96.54,376.74Z" style="opacity:0.30000000000000004"></path><path d="M249,398.29h88.41S310.88,293,279.94,293,249,398.29,249,398.29Z" style="fill:#263238"></path><path d="M249,398.29h88.41S310.88,293,279.94,293,249,398.29,249,398.29Z" style="opacity:0.30000000000000004"></path><path d="M506.34,221.42h-5.71c-.84,0-2.08,4.9-2.08,6.33s3.52,7.61,3.9,7.23,25.54,0,29.24,0,20-3.11,22.11-5.17,4.06-8.72,3.82-10.76-8.6-9.22-17-12-23-2.27-25.8-2-7.31,10-8.13,12A9,9,0,0,0,506.34,221.42Z" style="fill:#263238"></path><path d="M508.93,219.05c.18,1.63,3.76,8.09,5.2,8.22,14,1.32,34.71-.35,41.79-1,1.12-2.67,1.86-5.9,1.69-7.21-.23-2.05-8.6-9.22-17-12s-23.06-2.28-25.8-2c-.83.07-1.81,1-2.82,2.32,0,0,0,0,0,0C508.1,215.31,508.76,217.42,508.93,219.05Z" style="fill:#407BFF"></path><path d="M534,227.76l21.71-1.06v0a23.69,23.69,0,0,0,1.09-3c-3.14.2-18.18.85-19.4,1.26S534,227.76,534,227.76Z" style="fill:#dbdbdb"></path><path d="M376.16,388.63c0,38.69-20.58,70.06-46,70.06H297.32V318.57h32.87C355.58,318.57,376.16,349.93,376.16,388.63Z" style="fill:#37474f"></path><ellipse cx="297.31" cy="388.63" rx="45.96" ry="70.07" style="fill:#263238"></ellipse><ellipse cx="297.31" cy="388.63" rx="33.56" ry="51.16" style="fill:#dbdbdb"></ellipse><ellipse cx="297.31" cy="388.63" rx="30.94" ry="47.17" style="fill:#a6a6a6"></ellipse><path d="M303.81,385.84c-1.68-2.06-3.26-4.66-5.2-7.1,1.84-.58,2.87-7.51-1.14-16.17-3.27-8.35-11.57-18.42-11.46-18.17a20.39,20.39,0,0,0,3.19-3.87c10.43,15.49,11,18.72,13.6,20,2,.34,3.4-.52,2.63-20,2.18,2,4.19,3.94,6,5.74-.17-.18-.68,14.28-2.55,22.81C307.25,378.7,304.23,382.38,303.81,385.84Z" style="fill:#dbdbdb"></path><path d="M297.88,378.63c-1.85,1.82-4,3.27-6.24,5.3.08-2.44-3.5-6.83-10.41-3.33-6.38,2.35-16.09,12.6-16.13,13l-.09-8.36c13.7-10.93,15.54-10.11,17.57-13.71,1.4-2.88-1.74-7.12-10.39-13.32a43.06,43.06,0,0,0,4.2-5.59c-.33.14,9.25,7.81,13.33,13.32C294.36,371.56,296,377.05,297.88,378.63Z" style="fill:#dbdbdb"></path><path d="M291.32,384.93c.53,3.18.72,6.71,1.31,10.43-1.51-.75-5.5,2.95-5.39,14-.47,9.89,3.17,27.09,3.49,27.41-2.21-1.86-4.26-3.73-6.15-5.47-2.13-20.91-1.12-23.61-2.63-27.43-1.28-2.78-4.61.78-11,11a14.13,14.13,0,0,0-2.59-4.65c.09.08,7.7-13,12.41-17.4C285.75,387.49,289.64,387.39,291.32,384.93Z" style="fill:#dbdbdb"></path><path d="M293.16,396.1c2.19.16,4.51.89,7.07,1.14-1.31,2.1.39,8.47,6.33,12.12,5.3,4,18.39,6.13,18.33,6-1.85,2.22-3.44,4.13-4.69,6-10.35-4.28-15.94-7.18-18.13-6.17-1.48,1.36-2.56,3,5.12,17.76a23.12,23.12,0,0,0-3.3,3.82c-.22-.48-6.61-13.93-8.54-22.69C292.67,404.42,294.44,399.5,293.16,396.1Z" style="fill:#dbdbdb"></path><path d="M300.88,396.69c.85-3.08,2.09-6.16,3.07-9.76.9,2.73,5.52,1.44,9.59-5.69,4.12-6.29,9-22.83,8.93-22.34a21.15,21.15,0,0,0,2.51,5.43c-5.76,13.89-9,20.92-9,24.31.51,2.48,1,4.73,13.65-3.34q-.06,4.26-.12,8.49c-.29.06-10.6,4.91-16.65,5C306,399.72,303.44,395.9,300.88,396.69Z" style="fill:#dbdbdb"></path><path d="M302.21,395.05c-2.53,4.05-6.69,4.33-9.33.7s-2.74-9.9-.25-13.89,6.63-4.36,9.28-.77S304.73,391,302.21,395.05Z" style="fill:#dbdbdb"></path><path d="M651.26,372.09c0,38.69-20.59,70.06-46,70.06H572.42V302h32.86C630.67,302,651.26,333.39,651.26,372.09Z" style="fill:#37474f"></path><ellipse cx="572.41" cy="372.09" rx="45.96" ry="70.07" style="fill:#263238"></ellipse><ellipse cx="572.41" cy="372.09" rx="33.56" ry="51.16" style="fill:#dbdbdb"></ellipse><ellipse cx="572.41" cy="372.09" rx="30.94" ry="47.17" style="fill:#a6a6a6"></ellipse><path d="M578.91,369.3c-1.69-2.06-3.27-4.66-5.21-7.1,1.85-.58,2.87-7.51-1.13-16.17-3.28-8.35-11.58-18.42-11.46-18.17A20.45,20.45,0,0,0,564.3,324c10.43,15.49,11,18.72,13.6,20,2,.34,3.39-.52,2.62-20,2.19,2,4.19,3.94,6,5.74-.17-.18-.68,14.28-2.55,22.81C582.35,362.16,579.32,365.84,578.91,369.3Z" style="fill:#dbdbdb"></path><path d="M573,362.09c-1.85,1.83-4.05,3.28-6.24,5.3.08-2.44-3.5-6.83-10.41-3.33-6.38,2.35-16.09,12.6-16.13,13,0-2.78-.06-5.57-.1-8.35,13.71-10.94,15.55-10.12,17.57-13.72,1.41-2.88-1.73-7.12-10.38-13.32a43.06,43.06,0,0,0,4.2-5.59c-.33.14,9.24,7.82,13.32,13.32C569.46,355,571.11,360.51,573,362.09Z" style="fill:#dbdbdb"></path><path d="M566.42,368.39c.52,3.18.72,6.71,1.3,10.43-1.51-.75-5.5,2.95-5.38,14-.47,9.89,3.16,27.09,3.49,27.41-2.22-1.86-4.26-3.72-6.15-5.47-2.13-20.91-1.13-23.61-2.63-27.43-1.28-2.78-4.61.78-11,11a14.13,14.13,0,0,0-2.6-4.65c.1.08,7.71-13,12.42-17.4C560.85,371,564.73,370.85,566.42,368.39Z" style="fill:#dbdbdb"></path><path d="M568.26,379.56c2.19.16,4.51.9,7.07,1.14-1.31,2.1.39,8.47,6.32,12.12,5.31,4,18.39,6.14,18.34,6-1.86,2.22-3.44,4.13-4.7,6-10.34-4.28-15.94-7.18-18.12-6.17-1.49,1.36-2.56,3,5.12,17.76a23.54,23.54,0,0,0-3.3,3.82c-.22-.47-6.61-13.93-8.54-22.68C567.76,387.89,569.54,383,568.26,379.56Z" style="fill:#dbdbdb"></path><path d="M576,380.15c.85-3.08,2.08-6.16,3.07-9.76.9,2.73,5.52,1.44,9.59-5.69,4.12-6.29,9-22.83,8.93-22.34a20.82,20.82,0,0,0,2.51,5.43c-5.76,13.89-9,20.92-9,24.31.51,2.48,1,4.73,13.64-3.34q0,4.26-.11,8.49c-.29.07-10.6,4.91-16.66,5C581.12,383.18,578.54,379.36,576,380.15Z" style="fill:#dbdbdb"></path><path d="M577.31,378.51c-2.53,4.05-6.7,4.33-9.33.71s-2.74-9.91-.25-13.9,6.62-4.35,9.28-.77S579.82,374.48,577.31,378.51Z" style="fill:#dbdbdb"></path><path d="M173.11,372.23c0,30.44-7.94,55.11-17.74,55.11H119.91V317.12h35.46C165.17,317.12,173.11,341.79,173.11,372.23Z" style="fill:#37474f"></path><ellipse cx="119.91" cy="372.23" rx="17.74" ry="55.11" style="fill:#263238"></ellipse><ellipse cx="119.91" cy="372.23" rx="12.95" ry="40.24" style="fill:#dbdbdb"></ellipse><ellipse cx="119.91" cy="372.23" rx="11.94" ry="37.1" style="fill:#a6a6a6"></ellipse><path d="M122.42,370c-.65-1.62-1.26-3.67-2-5.59.71-.46,1.1-5.91-.44-12.72a88.37,88.37,0,0,0-4.42-14.29,18.31,18.31,0,0,0,1.23-3.05c4,12.19,4.23,14.73,5.25,15.72.78.27,1.31-.4,1-15.72.84,1.57,1.62,3.1,2.33,4.52-.07-.14-.26,11.24-1,17.94C123.74,364.42,122.58,367.32,122.42,370Z" style="fill:#dbdbdb"></path><path d="M120.13,364.36c-.71,1.44-1.56,2.58-2.41,4.18,0-1.92-1.35-5.38-4-2.63-2.46,1.85-6.21,9.91-6.22,10.26q0-3.29,0-6.57c5.29-8.6,6-8,6.78-10.79.54-2.27-.67-5.6-4-10.47a39.11,39.11,0,0,0,1.62-4.41c-.12.12,3.57,6.15,5.15,10.49C118.77,358.8,119.41,363.12,120.13,364.36Z" style="fill:#dbdbdb"></path><path d="M117.6,369.32c.2,2.5.27,5.28.5,8.21-.58-.6-2.12,2.32-2.08,11a186.28,186.28,0,0,0,1.35,21.56c-.86-1.47-1.64-2.93-2.37-4.31-.83-16.44-.44-18.57-1-21.57-.49-2.19-1.78.61-4.23,8.65a16.3,16.3,0,0,0-1-3.66c0,.06,3-10.25,4.79-13.68C115.45,371.33,117,371.26,117.6,369.32Z" style="fill:#dbdbdb"></path><path d="M118.31,378.11c.84.12,1.74.7,2.72.9-.5,1.64.16,6.66,2.45,9.52,2,3.14,7.09,4.83,7.07,4.72-.71,1.75-1.33,3.25-1.81,4.69-4-3.36-6.15-5.65-7-4.85-.58,1.07-1,2.38,2,14a20.66,20.66,0,0,0-1.27,3c-.09-.38-2.55-11-3.3-17.85C118.12,384.65,118.8,380.78,118.31,378.11Z" style="fill:#dbdbdb"></path><path d="M121.29,378.57c.32-2.42.8-4.84,1.18-7.68.35,2.15,2.13,1.14,3.7-4.47,1.59-4.95,3.49-18,3.45-17.57a26.38,26.38,0,0,0,1,4.27c-2.23,10.92-3.49,16.45-3.48,19.12.2,1.95.39,3.72,5.26-2.63q0,3.34,0,6.68c-.11,0-4.09,3.86-6.43,4C123.27,381,122.27,378,121.29,378.57Z" style="fill:#dbdbdb"></path><path d="M121.8,377.28c-1,3.19-2.59,3.41-3.6.55a20.36,20.36,0,0,1-.1-10.93c1-3.16,2.56-3.42,3.58-.6A20.33,20.33,0,0,1,121.8,377.28Z" style="fill:#dbdbdb"></path><path d="M447.1,372.23c0,30.44-7.94,55.11-17.74,55.11H393.9V317.12h35.46C439.16,317.12,447.1,341.79,447.1,372.23Z" style="fill:#37474f"></path><ellipse cx="393.9" cy="372.23" rx="17.74" ry="55.11" style="fill:#263238"></ellipse><ellipse cx="393.9" cy="372.23" rx="12.95" ry="40.24" style="fill:#dbdbdb"></ellipse><ellipse cx="393.9" cy="372.23" rx="11.94" ry="37.1" style="fill:#a6a6a6"></ellipse><path d="M396.4,370c-.65-1.62-1.26-3.67-2-5.59.71-.46,1.1-5.91-.44-12.72a89.5,89.5,0,0,0-4.42-14.29,18.31,18.31,0,0,0,1.23-3.05c4,12.19,4.22,14.73,5.24,15.72.79.27,1.31-.4,1-15.72.84,1.57,1.61,3.1,2.33,4.52-.07-.14-.26,11.24-1,17.94C397.73,364.42,396.56,367.32,396.4,370Z" style="fill:#dbdbdb"></path><path d="M394.12,364.36c-.72,1.44-1.57,2.58-2.41,4.18,0-1.92-1.35-5.38-4-2.63-2.46,1.85-6.21,9.91-6.22,10.26,0-2.19,0-4.38,0-6.57,5.29-8.6,6-8,6.78-10.79.54-2.27-.67-5.6-4-10.47a41.17,41.17,0,0,0,1.62-4.41c-.13.12,3.57,6.15,5.15,10.49C392.76,358.8,393.39,363.12,394.12,364.36Z" style="fill:#dbdbdb"></path><path d="M391.59,369.32c.2,2.5.27,5.28.5,8.21-.58-.6-2.12,2.32-2.08,11a186.28,186.28,0,0,0,1.35,21.56c-.86-1.47-1.65-2.93-2.38-4.31-.82-16.44-.43-18.57-1-21.57-.49-2.19-1.78.61-4.23,8.65a16.85,16.85,0,0,0-1-3.66c0,.06,3-10.25,4.79-13.68C389.44,371.33,390.93,371.26,391.59,369.32Z" style="fill:#dbdbdb"></path><path d="M392.29,378.11c.85.12,1.74.7,2.73.9-.5,1.64.15,6.66,2.44,9.52,2.05,3.14,7.1,4.83,7.08,4.72-.72,1.75-1.33,3.25-1.81,4.69-4-3.36-6.15-5.65-7-4.85-.57,1.07-1,2.38,2,14a20.6,20.6,0,0,0-1.28,3c-.08-.38-2.55-11-3.29-17.85C392.1,384.65,392.79,380.78,392.29,378.11Z" style="fill:#dbdbdb"></path><path d="M395.27,378.57c.33-2.42.81-4.84,1.19-7.68.35,2.15,2.13,1.14,3.7-4.47,1.59-4.95,3.48-18,3.45-17.57a27.67,27.67,0,0,0,1,4.27c-2.22,10.92-3.48,16.45-3.47,19.12.19,1.95.39,3.72,5.26-2.63,0,2.23,0,4.46,0,6.68-.12,0-4.09,3.86-6.43,4C397.26,381,396.26,378,395.27,378.57Z" style="fill:#dbdbdb"></path><path d="M395.79,377.28c-1,3.19-2.59,3.41-3.6.55a20.36,20.36,0,0,1-.1-10.93c1-3.16,2.56-3.42,3.58-.6A20.33,20.33,0,0,1,395.79,377.28Z" style="fill:#dbdbdb"></path><path d="M93.62,375.84s.18-69.35,3-92,8.12-33.93,9.32-35.37,6-11.71,7.64-14.57,11-10.52,11.71-11.71,15.64-28.37,17.8-32.38c.84-1.55,1.55-6.81,3.35-9.56s13.5-10.87,38-20.43,57.7-12.9,67-13.5,159.14-1.31,187.33,5.26,96.26,69.85,103.71,75.27c1.31.95,44.2,7.29,56.87,13.5a173.85,173.85,0,0,1,21,12.06s15.18,21.15,15.65,21.75,6.93,6.45,7.77,8.72,3.94,16.73,4.54,18.16,5.62,13,6,17.44,0,21,0,21.75,1.92,11.23,1.92,18.52-1.32,37-1.32,39-320.55,9.44-322.22,9S323.18,300,274.44,300c-22.22,0-31.22,37.76-23.57,98.21l-106.66-14.1S129.73,293.55,109,300.9c-11.22,4-15.16,33.18-14.08,75.4Z" style="fill:#407BFF"></path><path d="M656.28,358.69c0,7.3-1.32,37.05-1.32,39s-320.54,9.44-322.22,9S323.19,300,274.44,300c-22.23,0-31.21,37.75-23.57,98.2l-106.65-14.1S129.73,293.55,109,300.9c-11.22,4-15.17,33.19-14.08,75.4l-1.33-.46s.19-69.36,3-92.06,8.13-33.93,9.33-35.36,6-11.7,7.64-14.57,11-10.52,11.71-11.71a7.19,7.19,0,0,0,.38-.67c2.46-4.39,15.43-28,17.42-31.7.84-1.57,1.55-6.82,3.35-9.57s13.5-10.87,38-20.43,57.71-12.9,67-13.49,159.14-1.32,187.34,5.24,96.25,69.86,103.7,75.28c1.31,1,44.2,7.29,56.86,13.49a174.31,174.31,0,0,1,21,12.07s15.18,21.15,15.65,21.74,6.93,6.46,7.77,8.73,3.95,16.72,4.54,18.16,5.61,13,6,17.45,0,21,0,21.73S656.28,351.41,656.28,358.69Z" style="fill:#407BFF"></path><path d="M656.28,358.69c0,7.3-1.32,37.05-1.32,39s-320.54,9.44-322.22,9S323.19,300,274.44,300c-22.23,0-31.21,37.75-23.57,98.2l-106.65-14.1S129.73,293.55,109,300.9c-11.22,4-15.17,33.19-14.08,75.4l-1.33-.46s.19-69.36,3-92.06,8.13-33.93,9.33-35.36,6-11.7,7.64-14.57,11-10.52,11.71-11.71a7.19,7.19,0,0,0,.38-.67l136,11.36,25.81-3.05S429.75,259,441.46,260.25s168.34-2.15,172.82-3.05a8.88,8.88,0,0,0,6.15-4.84s15.18,21.15,15.65,21.74,6.93,6.46,7.77,8.73,3.95,16.72,4.54,18.16,5.61,13,6,17.45,0,21,0,21.73S656.28,351.41,656.28,358.69Z" style="opacity:0.1"></path><path d="M144.22,384.14s5.73-66.76,14.69-79.3,68.64-5.4,75.28,2.86c8.06,10,12.31,90,12.31,90Z" style="opacity:0.1"></path><path d="M287.58,229.78s-12.4-46.67-23.83-71c-1.44-3,138.47-9.84,193.36,0,5.89,1.05,36.7,21.55,89.07,68.1,1.08,1-31.54-.9-114.16-.54S291.17,230.14,287.58,229.78Z" style="fill:#263238"></path><path d="M292.54,226.55s-11.93-43.31-22.93-65.85c-1.38-2.83,135.37-9.14,188.18,0,5.66,1,33.15,20,83.53,63.19,1,.88-30.35-.83-109.82-.5S296,226.88,292.54,226.55Z" style="fill:#37474f"></path><path d="M530.22,224.07c-12.8-5-30.62-12-55.44-21.69-74.9-29.17-153.25-23.27-197.1-22.29-1.71-5.08-6.38-15.91-8.07-19.4-1.38-2.82,135.36-9.12,188.18,0,5.66,1,33.15,20,83.53,63.2C541.67,224.19,538.19,224.19,530.22,224.07Z" style="fill:#455a64;opacity:0.4"></path><path d="M273.3,229.07c.93-.56-8.57-49.27-20.55-62.25-14.57-15.8-68.16,1.76-89.24,12.43-.95.47-14.85,17.29-15.12,18s-.89,13.62.81,18a16.47,16.47,0,0,0,8.06,8.69c2.69,1.16,91.31,10.93,94.72,11S272.41,229.6,273.3,229.07Z" style="fill:#263238"></path><path d="M261.91,198.55c-2.56-11.9-8.08-23.76-13.18-29.14-13.71-14.48-64.13,1.61-84,11.38-.89.44-14,15.85-14.23,16.51s-.45,11.5,1.15,15.52a15.27,15.27,0,0,0,7.59,8c2.53,1.06,85.71,9.86,88.89,9.4C249.83,230,262.45,201.08,261.91,198.55Z" style="fill:#37474f"></path><path d="M255.78,180.48c-46.09-.3-81.24,13.86-105.29,25a51.15,51.15,0,0,1,0-8.15c.26-.66,13.34-16.07,14.23-16.5,19.83-9.78,70.25-25.87,84-11.4A43.84,43.84,0,0,1,255.78,180.48Z" style="fill:#455a64;opacity:0.4"></path><path d="M153.28,218.09c.21-.88,7.6-15.7,10.17-20.72s13.5-22.58,13.86-22.7,3.85-1.93,3.63-1.37-13.36,22.29-14.27,24.45C165.3,201,157,221.12,157,221.12Z" style="fill:#263238"></path><path d="M194.66,225.73s4.12-19.28,8.07-32.09a228.1,228.1,0,0,1,11.91-29.26c.18-.09,8.61-1.21,8.87-1.21s-9.34,22.43-11.73,29.9S205.65,227,205.46,227,195.41,225.83,194.66,225.73Z" style="fill:#263238"></path><path d="M218.41,164.45c-1.91,5-3.88,10-5.85,14.94-1.67,4.41-4.45,10.49-5.65,15-2.4,9-4.69,22.16-6.56,31.38a301.22,301.22,0,0,1,5.83-31.57c3.37-10.18,8-19.86,12.23-29.71Z" style="opacity:0.2"></path><path d="M178.44,174.73c-3.5,6.22-8.78,15.13-12.48,21.37-3.41,6.15-7.43,16-10.46,22.42,3.15-7.63,6.12-15.38,10-22.65,3.76-6.24,9.08-15.07,12.92-21.14Z" style="opacity:0.2"></path><path d="M607.77,281.28c1.74.37,12.66,11.59,12.66,13.26S602,332.77,595.1,338s-109,5-111.58,4.3-38-39.91-38.71-43,14.1-15.3,16.25-15.53S602.75,280.2,607.77,281.28Z" style="fill:#263238"></path><path d="M620.43,294.54c0,.54-1.89,4.64-4.69,10.16-1.25,2.49-2.69,5.26-4.22,8.12-1.78,3.3-3.68,6.71-5.58,9.95-1.58,2.7-3.15,5.27-4.64,7.52-2.43,3.69-4.61,6.53-6.2,7.74-6.93,5.26-109,5-111.59,4.3-.83-.24-4.95-4.32-10.22-9.91-2.15-2.28-4.5-4.82-6.89-7.44-2.75-3-5.54-6.13-8.18-9.12s-5.2-5.95-7.31-8.46c-3.52-4.2-5.92-7.3-6.1-8.09a2,2,0,0,1,.27-1.27c.93-2,4-5.08,7.16-7.9,3.77-3.33,7.78-6.24,8.81-6.36,2.16-.24,141.7-3.58,146.72-2.5.88.18,4.1,3.14,7.07,6.24,2.51,2.61,4.84,5.3,5.44,6.53A1.24,1.24,0,0,1,620.43,294.54Z" style="fill:#263238"></path><path d="M620.28,294.05c-5.53.9-16.67,2.65-19.08,2.76-3.23.14-124.91,2.29-129.39,2.12-3.15-.13-18.09-.61-26.73-.89.93-2,4-5.08,7.16-7.9,7.59.8,16.8,1.62,18.14,1.62,2.14,0,125.44-1.4,128.49-1.43,2,0,10.44-1.68,16-2.81C617.35,290.13,619.68,292.82,620.28,294.05Z" style="fill:#37474f"></path><path d="M615.74,304.7c-1.25,2.49-2.69,5.26-4.22,8.12-4.52.68-8.91,1.3-10.32,1.37-3.23.15-124.91,2.29-129.39,2.11-1.8-.07-7.46-.26-13.59-.44-2.69-3-5.2-5.95-7.31-8.46,7.81.82,18,1.73,19.47,1.73,2.14,0,125.44-1.39,128.49-1.41C601,307.71,610.29,305.83,615.74,304.7Z" style="fill:#37474f"></path><path d="M605.94,322.77c-1.58,2.7-3.15,5.27-4.64,7.52h-.1c-3.07.13-113.23,2.09-127.91,2.12-2.15-2.28-4.5-4.82-6.89-7.44,2,.16,3.5.27,4,.27,2.14,0,125.44-1.41,128.49-1.42A64,64,0,0,0,605.94,322.77Z" style="fill:#37474f"></path><path d="M94.94,376.3s-2.67-83.58,12.5-91.2,24.71,17,30.2,32,10.52,39.42,11.59,39.66,97.25,14.46,97.73,14.34-.78-73.95,21.63-85.9c20.23-10.79,37.4,11.37,48.14,29.63,14.14,24,25.24,76.09,25.69,76.09,4.84,0,93.91-1.3,94.8-1.48s28-18.64,30.29-19,141.75-4.84,144.62-4.84,22.4,17.21,23.3,17.21,20.55-.45,20.85-.36-.06,15.59-.42,15.95-325,11.39-324.8,9.85-14-55.85-29-85.48c-11.83-23.35-33.87-34.18-41.94-.35-8,33.44-8.39,75.26-9.29,75.8s-104.68-12.42-106.66-14.1-13.62-83.69-33-83.33-14.7,75.93-14.7,75.93Z" style="fill:#263238"></path><path d="M629.79,356c1.06-.25,22.9-10,23.74-11.65s.89-18.28,0-18.1S637,339.91,636,341.08,628.1,356.34,629.79,356Z" style="fill:#263238"></path><path d="M631.13,359.8c-.29-.85,22.26-9,23-9.14s1.68,10.66,1,11.6-16.31,3.81-17.56,3.45S631.66,361.41,631.13,359.8Z" style="fill:#263238"></path><path d="M151.5,343.93l89.85,13.81s-4.78-7.29-9.56-9.68-55.56-15.77-65-15.17S151.5,343.93,151.5,343.93Z" style="fill:#407BFF"></path><path d="M98.69,298.48s2-19.35,9.92-24.49c8.46-5.52,16.25,1.07,22.7,14.1,5.23,10.55,10.28,36.08,10.28,36.08s-9.74-31.07-21.46-40.45a10.64,10.64,0,0,0-14.15.66C101,289.5,98.69,298.48,98.69,298.48Z" style="fill:#407BFF"></path><path d="M127.61,235c11.71,1.47,49.22,9,65.71,12.82s64.87,16.34,64.87,16.34S246.6,266.1,243.73,266s-83.39-13.85-88.52-14.69S127.61,235,127.61,235Z" style="fill:#407BFF"></path><g style="opacity:0.1"><path d="M331.07,251.29c-9.16-1.52-18.24-3.45-27.29-5.52-5.33-1.41-10.85-2.41-15.95-4.59-.22-.11-.62-.37-.57-.74v-.22l.07-3.48c.08-2.32.13-4.64.24-7,.11,2.32.16,4.64.25,7,0,.19.06,3.71.08,3.79s-.05-.12,0-.09a4.35,4.35,0,0,0,1,.47c4.94,1.58,10,2.69,15.1,3.89,7.65,1.8,19.53,4.57,27.06,6.49Z"></path><path d="M150.91,219.05c-4.36,5.11-8.86,10.15-13.34,15.18-.16.19-.8.89-.94,1.05a4,4,0,0,0-.18.55c-.52,1.83-.48,3.75-1.13,5.59a115.86,115.86,0,0,0-6.11,10.63c-.57,1.12-.53,3-.73,4.26-1,8.56-2.3,18.12-3.62,26.64.78-9.07,2-19.88,2.94-29a6.06,6.06,0,0,1,.52-2.3,62.6,62.6,0,0,1,4.42-7.88c.39-.6,1.41-2.23,1.77-2.82.6-1.86.59-4,1.3-6a2.39,2.39,0,0,1,.45-.58c4.84-5.16,9.69-10.32,14.65-15.38Z"></path><path d="M195.22,228.88c-2.76,5-7,11.56-9.27,16.7,0,2.18.21,6.08.27,8.3a25.34,25.34,0,0,1-.16,5.06,32.66,32.66,0,0,0-1.2,4.09c-1.09,4.43-2.23,8.93-3,13.43-.28,3.18-.34,19.5-.42,23-.31-7.7-.72-15.37-.44-23.08.69-4.6,1.77-9.06,2.84-13.58a33.73,33.73,0,0,1,1.27-4.18,29.13,29.13,0,0,0,.15-4.7c0-2.28-.23-6.14-.15-8.39,2.59-5.74,6.68-11.33,10.06-16.63Z"></path><path d="M263.74,231c-1.84,5.11-5.58,15.33-7.48,20.42-1.21,3.39-2.57,6.82-3.66,10.17a10.92,10.92,0,0,0-.13,2.59c.06,1.66.25,3.8.2,5.47-1.13,4.38-2.09,8.85-2.9,13.32-.63,3.63-.27,7.15-.56,10.78-.28,7.24-.61,14.48-1.05,21.72l.1-10.88c.08-5.07.28-14,.29-19A114.26,114.26,0,0,1,251,272.11a21.73,21.73,0,0,1,.65-2.33s0-.14,0-.21c.05-1.51-.12-3.84-.16-5.39-.29-2.76,1.17-5.46,2-8q4.87-12.7,10.16-25.22Z"></path></g><path d="M360.7,323s62.84,12.41,72.4,17.56S457.71,355,457.71,355h93.91c48,0,65.47-6.24,65.47-6.24s14.1-22.46,17.68-25.81,16.49-11.08,16.49-11.08,0,4.18-2.15,6.68-10,8-11.71,9.9S624.26,353.08,624,354s-.48,6.21-1.68,6.93-167,5.73-170.12,4.78-22.7-17-28-18.64-61.17-17.45-61.17-17.45Z" style="fill:#407BFF"></path><path d="M349.47,349c.24-1.91,12.18-18.64,13.62-19.36S423.78,346,427.36,347s14.1,11.33,14.1,12.28S349.47,349,349.47,349Z" style="fill:#263238"></path><path d="M351.38,355.08c-.31-1.07,87.93,11.38,88.17,12.34s-11.71,9.08-14.1,9.08-55.19-3.11-58.3-4.78S352.1,357.56,351.38,355.08Z" style="fill:#263238"></path><path d="M167.45,167.09s26.05-16.91,56.33-23,40.31-.11,43,1.92,6.57,9.49,6.57,9.49l-8.18,1s-3.4-8.24-15.59-9.5C240.81,146.05,195.22,151.79,167.45,167.09Z" style="fill:#263238"></path><path d="M457.11,158.82S444.45,148,432.86,145.9s-49.34,1.35-49.34,1.35,31.09-.08,45.88,2.58c9.43,1.7,21.06,7.93,21.06,7.93Z" style="fill:#263238"></path><path d="M256,221.42h5.71c.83,0,2.08,4.9,2.08,6.33s-3.52,7.61-3.9,7.23-25.54,0-29.25,0-20-3.11-22.1-5.17-4.06-8.72-3.82-10.76,8.6-9.22,17-12,23.06-2.27,25.81-2,7.31,10,8.12,12A9,9,0,0,1,256,221.42Z" style="fill:#263238"></path><path d="M256,221.42h5.71c.83,0,2.08,4.9,2.08,6.33s-3.52,7.61-3.9,7.23-25.54,0-29.25,0-20-3.11-22.1-5.17-4.06-8.72-3.82-10.76,8.6-9.22,17-12,23.06-2.27,25.81-2,7.31,10,8.12,12A9,9,0,0,1,256,221.42Z" style="opacity:0.30000000000000004"></path><path d="M253.36,219.05c-.19,1.63-3.76,8.09-5.21,8.22-14,1.32-34.7-.35-41.79-1-1.12-2.67-1.85-5.9-1.69-7.21.24-2.05,8.6-9.22,17-12s23.05-2.28,25.8-2c.83.07,1.81,1,2.81,2.32,0,0,0,0,0,0C254.19,215.31,253.53,217.42,253.36,219.05Z" style="fill:#407BFF"></path><path d="M228.26,227.76l-21.7-1.06v0a23.69,23.69,0,0,1-1.09-3c3.14.2,18.18.85,19.4,1.26S228.26,227.76,228.26,227.76Z" style="fill:#dbdbdb"></path><polygon points="583.88 377.12 497.44 378.67 497.44 355.96 583.88 354.4 583.88 377.12" style="fill:#fff"></polygon><path d="M423.54,295.73c1.46,0,24.85-16,26-17.68s-113-28.67-116.37-28.91-20.55,6.21-20.07,7.64,16.25,22.94,22.94,26.77S417.09,295.73,423.54,295.73Z" style="fill:#fff"></path><path d="M449.58,278.05a34.46,34.46,0,0,1-4.5,3.57h0c-7.19,5.21-20.45,14.1-21.54,14.1-6.45,0-80.77-8.36-87.45-12.19-2-1.14-4.81-3.85-7.77-7.14-7-7.73-14.83-18.62-15.18-19.62-.47-1.43,16.73-7.88,20.08-7.64S450.78,276.38,449.58,278.05Z" style="fill:#fff"></path><path d="M445.08,281.62h0c-7.19,5.21-20.45,14.1-21.54,14.1-6.45,0-80.77-8.36-87.45-12.19-2-1.14-4.81-3.85-7.77-7.14,2.7-3.33,13.85-17,17.08-16.73C381.36,262.42,443.38,280.94,445.08,281.62Z" style="fill:#ebebeb"></path><path d="M353.47,272.4c.13,6.62-8.19,10.4-13.09,5.78a7.92,7.92,0,0,1,0-11.56c4.89-4.63,13.22-.84,13.09,5.78Zm0,0a6.83,6.83,0,0,0-11.88-4.56c-3.79,4-1,11.05,4.57,11.38a6.87,6.87,0,0,0,7.31-6.82Z" style="fill:#fff"></path><path d="M371.87,272.43c.12,5.82-7.18,9.19-11.53,5.13a7,7,0,0,1,0-10.26c4.34-4.06,11.65-.68,11.53,5.13Zm0,0c-.27-7.89-11.57-7.75-11.79,0,.22,7.76,11.52,7.89,11.79,0Z" style="fill:#fff"></path><path d="M613,276.38c-1,1.38,12.42,15.29,13.38,15.29s15.77-6.45,17.44-8.84-3.35-18.88-4.3-20.55-15-4.22-14.82-3.92S615.27,273.2,613,276.38Z" style="fill:#fff"></path><path d="M643.85,282.83a11.42,11.42,0,0,1-3.25,2.36c-5.62,2.12-13.16,4.83-14.22,4.5-4.89-1.54-12-13.4-12-13.4,4.57-3.72,16.13-15.36,16.9-16.8,3.74.82,7.78,1.92,8.28,2.79C640.51,264,645.52,280.44,643.85,282.83Z" style="fill:#ebebeb"></path><path d="M641.16,271.73c-.06,8.76-8.93,8.39-9.24,0,.3-8.39,9.18-8.76,9.24,0Zm0,0c-.31-7.08-7.19-7.4-7.24,0s6.94,7.09,7.24,0Z" style="fill:#fff"></path><rect x="134.66" y="246.47" width="11.06" height="10.75" rx="3.64" transform="translate(34.59 -16.35) rotate(7.61)" style="fill:#407BFF"></rect><rect x="131.45" y="250.31" width="17.72" height="3.67" rx="1" transform="translate(34.63 -16.36) rotate(7.61)" style="fill:#407BFF"></rect><g style="opacity:0.2"><rect x="131.45" y="250.31" width="17.72" height="3.67" rx="1" transform="translate(34.63 -16.36) rotate(7.61)" style="fill:#fff"></rect></g><rect x="190.11" y="255.79" width="11.06" height="10.75" rx="3.64" transform="translate(36.32 -23.61) rotate(7.61)" style="fill:#407BFF"></rect><rect x="186.9" y="259.63" width="17.72" height="3.67" rx="1" transform="translate(36.36 -23.63) rotate(7.61)" style="fill:#407BFF"></rect><g style="opacity:0.2"><rect x="186.9" y="259.63" width="17.72" height="3.67" rx="1" transform="translate(36.36 -23.63) rotate(7.61)" style="fill:#fff"></rect></g></g><g id="freepik--Character--inject-79"><path d="M533.75,335.35l-36.53,29.51c-7,5.61-13.05,10.65-15.94,13.55l0,0c-1.09,1.1-1.72,1.88-1.75,2.25a.24.24,0,0,0,0,.08c.26,3.21,43.41,60.54,45.59,62s6.6-4.6,6.71-8.16-6.62-32.9-6.62-32.9l36.21-29.84Z" style="fill:#d3766a"></path><path d="M531.77,434.65c-.1,3.57-4.53,9.67-6.71,8.17s-45.33-58.83-45.59-62c0,0,0,0,0-.07,0-.39.67-1.17,1.76-2.26l.05-.05c1.66-1.68,4.41-4.08,7.79-6.89,8.69,16.43,34.31,51,38,54.72,3,3,1.83-6.12.89-11.66C529.82,423,531.81,432.68,531.77,434.65Z" style="fill:#263238"></path><path d="M553.49,300.19c-2.59,12.78-55.57,63.73-55.57,63.73l36.94,42.64s75.23-75.09,71.3-103.3C602.74,278.71,566,180,566,180H523.61S556,287.64,553.49,300.19Z" style="fill:#455a64"></path><path d="M539.06,396.43c-4.91-6.11-3.41-4.43-8.39-10.48-2.43-3-18.45-22.42-21.21-24.79-.06-.05-.16,0-.12.1,1.84,3.13,18.2,22.31,20.69,25.22,5.09,6,3.7,4.19,8.86,10.09A.11.11,0,0,0,539.06,396.43Z" style="fill:#263238"></path><path d="M560.78,296c-.61-3.19-1.3-6.36-2-9.54q-2.06-9.72-4.37-19.39-4.57-19.19-10-38.15c-3.61-12.69-7.43-25.35-11.83-37.79q-.82-2.31-1.67-4.6c0-.12-.22-.07-.18,0C534.6,199,538.52,211.46,542.1,224s6.85,25,9.95,37.63c1.56,6.33,3,12.68,4.43,19q1,4.69,2,9.39a67.66,67.66,0,0,1,1.77,9.67,14.63,14.63,0,0,1-2.49,8.71c-1.59,2.6-3.46,5.05-5.27,7.5-3.62,4.91-38.12,43.36-39.23,44.41-.09.08,0,.2.13.12,4.63-4.15,33.91-35.84,37.63-40.75q2.76-3.63,5.39-7.37a29.13,29.13,0,0,0,4.21-7.42C561.64,302,561.34,299,560.78,296Z" style="fill:#263238"></path><path d="M557.29,180l-4.22,112.32C549,264.18,523.61,180,523.61,180Z" style="fill:#263238"></path><path d="M540.49,388s9.15,44.56,9.15,44.6c.12,9,.39,16.84.91,20.89a.09.09,0,0,0,0,.07,6.17,6.17,0,0,0,.7,2.76l0,.06c2.69,1.77,74.44,2.88,77,2.08s.43-8-2.32-10.3-30-15-30-15l-9.6-44.53Z" style="fill:#d3766a"></path><path d="M628.27,458.43c-2.52.8-74.26-.32-77-2.08l-.06-.07a6.35,6.35,0,0,1-.7-2.75v-.06c-.35-2.7-.58-7.06-.73-12.32,16.83,4.11,62.52,7.83,68.35,6.37,3.25-.82-.86-3.5-5.16-6.21,6.09,3,11.75,5.84,12.93,6.82C628.68,450.4,630.79,457.64,628.27,458.43Z" style="fill:#263238"></path><path d="M561.91,180c0,.89-4.31,37.21-5.49,38.19-1.34,1.1-8.79,6.08-11,7.46,0,0,20.32,63.3,25.71,84.41,7.81,30.6,26.53,122.4,26.53,122.4H547.74S532.58,345.07,526,315.94C520.27,291,498.5,216,498.5,216a64.3,64.3,0,0,1,1.76-36S561.92,180,561.91,180Z" style="fill:#455a64"></path><path d="M595.81,422.77c-7.84,0-5.59-.14-13.43-.1-3.83,0-29,.2-32.61.85-.08,0-.07.14,0,.16,3.6.53,28.79-.08,32.63-.17,7.83-.2,5.58-.23,13.41-.51A.12.12,0,0,0,595.81,422.77Z" style="fill:#263238"></path><path d="M558.63,216.36a95.41,95.41,0,0,0-13.76,9.21.17.17,0,0,0,.19.28c4.66-2.92,9.43-5.76,13.93-8.93A.33.33,0,0,0,558.63,216.36Z" style="fill:#263238"></path><path d="M554.82,181.91c0-.17-.35-.16-.32,0a168.56,168.56,0,0,1,1.75,16.82c.17,2.61.31,17.15-4.31,16.8-.78-.05-1.27-.73-1.57-1.84a18.37,18.37,0,0,1-.08-4.45c0-3.05,0-6.1-.24-9.15a83,83,0,0,0-2.8-16.79.14.14,0,0,0-.28.06,156,156,0,0,1,2.24,23.43c0,3.79-1,9.64,3,9.61s5.13-9.75,5.21-12.38A86.11,86.11,0,0,0,554.82,181.91Z" style="fill:#263238"></path><path d="M552.11,215.93a25.12,25.12,0,0,0-.54,3.1,6.52,6.52,0,0,0,0,2.49.18.18,0,0,0,.32,0,8.69,8.69,0,0,0,.67-2.52c.2-1,.41-1.93.58-2.9A.5.5,0,0,0,552.11,215.93Z" style="fill:#263238"></path><path d="M542.26,396.44c-.14-1.16-.29-2.31-.46-3.46-.31-2.21-.68-4.41-1-6.62-.68-4.43-1.44-8.85-2.23-13.26-1.56-8.81-3.37-17.59-5.27-26.32-1.08-4.94-2.33-9.83-3.65-14.71-.09-.33-.57-.17-.51.16.8,4.47,1.57,8.93,2.48,13.38s1.82,8.87,2.7,13.3c1.75,8.78,3.37,17.57,5.11,26.35.48,2.48.93,5,1.41,7.44.24,1.23.49,2.47.76,3.7s.65,2.44.85,3.67c0,.12.2.07.18-.05C542.41,398.84,542.39,397.63,542.26,396.44Z" style="fill:#263238"></path><path d="M576.33,329c-1.66-8.28-3.9-16.45-6.15-24.58C565.65,288.1,560.31,272,555,255.85c-1.54-4.64-9.13-28.77-9.6-30a.1.1,0,0,0-.19.06c1.08,4.26,6.37,23,7.67,27.17,2.55,8.17,5.14,16.32,7.61,24.5,4.89,16.19,9.74,32.36,13.71,48.8,1.11,4.6,2.22,9.2,3.24,13.83s1.88,9.26,2.84,13.89c0,.13.24.09.23,0C579.67,345.67,578,337.34,576.33,329Z" style="fill:#263238"></path><path d="M545.33,372.32c-2.75-15.79-6-31.49-9.68-47.09s-7.73-31.26-12.23-46.72-9.46-30.78-14.81-46a192.59,192.59,0,0,1-6.77-21.87c-1.65-7.37-2.48-15.35-.76-22.79a36.92,36.92,0,0,1,1.7-5.54c.05-.12-.13-.23-.18-.1-6,14-2.11,29.26,2.46,43,2.5,7.54,5.17,15,7.63,22.59q3.81,11.64,7.29,23.39c4.6,15.5,8.87,31.1,12.7,46.82s7.23,31.53,10.23,47.43,5.54,32,8.11,48c.33,2.08.6,4.18.87,6.27,0,.12.2.11.19,0C550.15,403.9,548.07,388.08,545.33,372.32Z" style="fill:#263238"></path><path d="M535.08,81.79c-10.15,5.15-11.71,19.89-10,40.67.25,3.15,27.28,7.39,39.76-3,2-1.67-2.14-27-7.63-34.08C550.37,76.6,541.37,78.6,535.08,81.79Z" style="fill:#263238"></path><path d="M534.81,82c-5.3,3-8.53,8.67-9.82,14.51a86.18,86.18,0,0,0-1.54,13.12,51.32,51.32,0,0,0,.39,12.57.12.12,0,0,0,.23,0,108.76,108.76,0,0,1,1.34-23.56c1.05-6.53,4.1-12.47,9.63-16.22C535.25,82.26,535,81.88,534.81,82Z" style="fill:#263238"></path><path d="M561.46,92.36c-2.22-6.53-6.7-11.06-13.2-12.89,0,0-.06.06,0,.07,7,2.4,11.21,7.69,13.32,14.86a153.08,153.08,0,0,1,4.5,23.83.13.13,0,1,0,.26,0A101.38,101.38,0,0,0,561.46,92.36Z" style="fill:#263238"></path><path d="M543.59,136.71c10.52,21.72,23.89,45.24,36.4,48.93,11.9,3.52,41.42-25.46,46.58-35.23,1.78-3.37-22.68-19-26-16.6-6.19,4.55-17.53,19.1-19.4,18.66s-17.42-15.23-31.49-27.68C541.2,117.23,536.3,121.66,543.59,136.71Z" style="fill:#d3766a"></path><path d="M616.07,158s11.1-3.31,18.25-5.82c4-1.4,10.62-4.4,13.08-6.77,3.69-3.55,16.83-20.72,12.73-24-3.7-3-13.12,13.22-13.12,13.22s11-15.49,5.83-18.24-13.33,17-13.33,17,10.89-16.17,5.16-18.17c-4.33-1.52-12.77,15.91-12.77,15.91s9.27-14,4.88-15.71c-4.84-1.93-13.64,13.67-13.64,13.67a27.82,27.82,0,0,0-24.63,6.48C597.5,136.41,616.07,158,616.07,158Z" style="fill:#d3766a"></path><path d="M644.06,139.5c8.94-10.8,10-18.83,9.94-18.62-1.7,4.9-5.85,11.73-7,13.61s-1.79,3.08-3,5C644,139.5,644,139.54,644.06,139.5Z" style="fill:#263238"></path><path d="M636.67,136.08a47.72,47.72,0,0,0,9-14.32c.06-.21,0-.19-.15,0-1.45,2.44-7.31,11.92-8.86,14.28C636.59,136.08,636.64,136.11,636.67,136.08Z" style="fill:#263238"></path><path d="M630.11,133.56a35.35,35.35,0,0,0,6.61-11.29c.08-.2-.08-.17-.19,0-2.13,3.79-3.77,6.78-6.54,11.17C630,133.54,630.06,133.63,630.11,133.56Z" style="fill:#263238"></path><path d="M595,137.37l22.74,25.73S592,190.18,580.43,186.88s-32.64-35.61-39.07-55.9c-4.44-14,3.21-11.56,11.1-4.49S581,151.13,582,150.91,595,137.37,595,137.37Z" style="fill:#407BFF"></path><g style="opacity:0.5"><path d="M595,137.37l22.74,25.73S592,190.18,580.43,186.88s-32.64-35.61-39.07-55.9c-4.44-14,3.21-11.56,11.1-4.49S581,151.13,582,150.91,595,137.37,595,137.37Z" style="fill:#fff"></path></g><path d="M541.36,131c6.43,20.29,27.48,52.61,39.07,55.9,5.11,1.46,13-3,20.23-8.47,0,0,0,0,0,0-11.51-12.65-42.22-43.38-56.13-57.21C540.61,119.79,538.53,122,541.36,131Z" style="opacity:0.1"></path><path d="M610,167c-3.3-3.56-16.26-18.59-18.85-22-.17-.24-.07-.41.15-.18,10.14,10.41,15.78,18.42,18.84,22.07C610.21,167,610.09,167.1,610,167Z" style="fill:#263238"></path><path d="M503.4,181h63l-4.87-18.6s4.1-7.56,2.88-12.63c-1.34-5.5-8.64-17.26-13-22.47-10.56-12.68-19.73-7-22.65-3.68C517.57,136,503.4,181,503.4,181Z" style="fill:#407BFF"></path><path d="M503.4,181h63l-4.87-18.6s4.1-7.56,2.88-12.63c-1.34-5.5-8.64-17.26-13-22.47-10.56-12.68-19.73-7-22.65-3.68C517.57,136,503.4,181,503.4,181Z" style="fill:#fff;opacity:0.5"></path><path d="M543.44,160.29a54.49,54.49,0,0,1,8,.24c1.32.15,2.62.37,3.92.61.65.12,1.3.22,2,.32a8.36,8.36,0,0,0,2.06.11c.06,0,.07.08,0,.09a14.07,14.07,0,0,1-1.94.23,17.28,17.28,0,0,1-1.9-.1c-1.34-.15-2.66-.35-4-.51-2.69-.32-5.39-.64-8.1-.77C543.31,160.51,543.31,160.3,543.44,160.29Z" style="fill:#263238"></path><path d="M537.25,163.5a56.81,56.81,0,0,1,6.48-1.19c1.09-.14,2.19-.2,3.29-.25.52,0,1.05,0,1.57,0s1.16.07,1.74.06c.06,0,.07.09,0,.09-.54,0-1.09.15-1.63.21l-1.63.17c-1.09.12-2.18.26-3.28.37-2.18.21-4.36.45-6.53.75A.09.09,0,0,1,537.25,163.5Z" style="fill:#263238"></path><path d="M525.48,127.23c-14.15,24.42-35.31,80.45-39.13,88.46-2.6,5.44,25.84,19.78,27,15.82,1.54-5.06,21.28-70.33,22.57-99.44C536.56,118.57,530,119.42,525.48,127.23Z" style="fill:#d3766a"></path><path d="M514.16,228.78c-.66,4.93-4,14.86-6.5,16.38s-15.58,1.19-22.18,1.19-7.89-1.84-7.78-4.11,13.95-2.7,13.95-2.7-18.49,5.29-23.14,6.16-15.36,3.57-16.91-.29c-.7-1.74,2.23-3.5,2.23-3.5s-4.5,1.32-5.21-.92c-.81-2.54,2.76-3.94,2.76-3.94s-2.81.56-2.87-1.51c-.15-4.63,17.43-6.91,17.43-6.91s-13.46,6.56-13.89,2.78c-.6-5.24,27-11,29.86-13.26a53.15,53.15,0,0,0,5.85-5.68Z" style="fill:#d3766a"></path><path d="M477.79,243.39a2,2,0,0,1,.63-1.76,5.81,5.81,0,0,1,1.61-1,21.67,21.67,0,0,1,3.78-1.22c2.6-.67,5.26-1.13,7.92-1.82a32.52,32.52,0,0,0-8.15.92,14.88,14.88,0,0,0-3.89,1.49,5.13,5.13,0,0,0-1.62,1.39A2.12,2.12,0,0,0,477.79,243.39Z" style="fill:#263238"></path><path d="M453.83,241.91c1.9-.46,3.78-1,5.65-1.54s3.73-1.11,5.59-1.67l5.57-1.75c1.86-.58,3.72-1.16,5.59-1.72a43.74,43.74,0,0,0-5.78,1c-1.9.44-3.78,1-5.65,1.55s-3.72,1.2-5.54,1.89S455.61,241.09,453.83,241.91Z" style="fill:#263238"></path><path d="M471.77,230.61a38.32,38.32,0,0,0-5.34.74,50,50,0,0,0-5.22,1.35,45.57,45.57,0,0,0-5,1.88,36.72,36.72,0,0,0-4.79,2.47c1.7-.59,3.36-1.24,5.05-1.81s3.36-1.14,5.06-1.66,3.4-1,5.11-1.54S470,231.09,471.77,230.61Z" style="fill:#263238"></path><path d="M469.05,226.2a33.63,33.63,0,0,0-8.49,1.79,32.8,32.8,0,0,0-7.81,3.79c2.73-1,5.39-2,8.11-2.91S466.29,227.09,469.05,226.2Z" style="fill:#263238"></path><path d="M484.68,214.42l31.18,15.23S534,159.48,536,136.83s-6.69-17.44-12.7-6.8C515.08,144.57,484.68,214.42,484.68,214.42Z" style="fill:#407BFF"></path><path d="M484.68,214.42l31.18,15.23S534,159.48,536,136.83s-6.69-17.44-12.7-6.8C515.08,144.57,484.68,214.42,484.68,214.42Z" style="fill:#fff;opacity:0.5"></path><path d="M515.11,221.73c-4.24-1.72-21.36-9.4-24.94-11.31-.25-.13-.23-.32.05-.22,12.84,4.86,20.88,9.46,24.95,11.36C515.28,221.61,515.22,221.78,515.11,221.73Z" style="fill:#263238"></path><path d="M526.74,185c.46-3.34,1-6.66,1.64-10s1.26-6.61,1.92-9.9,1.39-6.59,2.17-9.86l1.17-4.91c.43-1.63.82-3.27,1.28-4.89-.22,1.67-.51,3.33-.76,5l-.88,5c-.59,3.31-1.25,6.61-1.92,9.9s-1.39,6.59-2.17,9.86S527.64,181.75,526.74,185Z" style="fill:#263238"></path><path d="M533.14,154.05a12.17,12.17,0,0,1,1-2.47,11.67,11.67,0,0,1,1.48-2.23,12.49,12.49,0,0,1-1,2.48A11.92,11.92,0,0,1,533.14,154.05Z" style="fill:#263238"></path><path d="M547.23,133.72s-11.12-10-17.23-10.15l-5.44,4.3s-1.73.46-2.2-.64c-1.15-2.74-1-9.2,4.75-13.07,5.29-3.54,15.67-2.16,22.5.07,6.56,2.14,10,6.27,7.71,10.49S547.23,133.72,547.23,133.72Z" style="fill:#407BFF"></path><path d="M547.23,133.72s-11.12-10-17.23-10.15l-5.44,4.3s-1.73.46-2.2-.64c-1.15-2.74-1-9.2,4.75-13.07,5.29-3.54,15.67-2.16,22.5.07,6.56,2.14,10,6.27,7.71,10.49S547.23,133.72,547.23,133.72Z" style="fill:#fff;opacity:0.5"></path><path d="M548,131.72s5.73-5.27,6.7-8.46-5.32-6.65-9.43-8.11c-6.36-2.24-10.79-2.08-14.62,1.17S548,131.72,548,131.72Z" style="opacity:0.1"></path><path d="M537.73,123.94c.22,1.12,5.65,6.33,10.72,6.26,1.65,0,1.53-6.89,1.53-6.89l.18-.66,2.39-9.26L541.83,106l-1.55-1s-.49,2.57-1.07,5.78c0,.15-.05.3-.08.46s-.07.35-.1.52l-.27,1.46c-.06.37-.12.74-.18,1.13s-.11.77-.17,1.17A61,61,0,0,0,537.73,123.94Z" style="fill:#d3766a"></path><path d="M539.21,110.8a19.19,19.19,0,0,0,10.95,11.85l2.39-9.26L541.83,106l-1.55-1S539.79,107.59,539.21,110.8Z" style="fill:#263238"></path><path d="M564.08,96.08c5.07,16-3.93,20.84-7.38,21.93-3.13,1-13.92,4-20.63-11.42s-.87-22.8,6.18-25.44S559,80.09,564.08,96.08Z" style="fill:#d3766a"></path><path d="M559.36,96.25a11.11,11.11,0,0,1-1.16.1,1.86,1.86,0,0,1-1.19-.12.6.6,0,0,1-.21-.7,1.48,1.48,0,0,1,1.29-.76,2.22,2.22,0,0,1,1.53.34A.64.64,0,0,1,559.36,96.25Z" style="fill:#263238"></path><path d="M548,99a10,10,0,0,0,1-.56,1.89,1.89,0,0,0,.93-.76.61.61,0,0,0-.21-.7,1.5,1.5,0,0,0-1.5.09,2.17,2.17,0,0,0-1.08,1.13A.64.64,0,0,0,548,99Z" style="fill:#263238"></path><path d="M551.33,101.35s-.06.08-.05.12c.39,1.08.66,2.37-.2,3.06a0,0,0,1,0,0,0C552.25,104,551.88,102.3,551.33,101.35Z" style="fill:#263238"></path><path d="M550,100.54c-1.79.44-.77,4,.89,3.57S551.49,100.17,550,100.54Z" style="fill:#263238"></path><path d="M549.35,100.92c-.25.29-.45.73-.82.88a1.36,1.36,0,0,1-1.23-.39s-.07,0,0,.06c.18.68.64,1.3,1.4,1.2s1-.84,1-1.57C549.61,101,549.45,100.81,549.35,100.92Z" style="fill:#263238"></path><path d="M557.84,99.41s.1,0,.11.07c.27,1.11.77,2.34,1.86,2.43,0,0,.05.06,0,.06C558.56,102.14,557.92,100.5,557.84,99.41Z" style="fill:#263238"></path><path d="M558.5,98c1.73-.63,2.86,2.88,1.25,3.46S557.05,98.51,558.5,98Z" style="fill:#263238"></path><path d="M559.3,98c.34.1.73.35,1.06.26s.56-.57.69-1c0,0,.05,0,.06,0,.24.67.24,1.44-.36,1.77s-1.17-.13-1.55-.74C559.13,98.16,559.17,97.94,559.3,98Z" style="fill:#263238"></path><path d="M553.75,110a1.69,1.69,0,0,0,1,.53,3,3,0,0,0,1.18-.45,0,0,0,0,1,0,0,1.53,1.53,0,0,1-1.35.81,1.22,1.22,0,0,1-1-.88C553.62,110,553.7,109.94,553.75,110Z" style="fill:#263238"></path><path d="M557.63,105a24.61,24.61,0,0,1,.72,2.42c0,.08-.17.15-.43.22,0,0,0,0,0,0A3.82,3.82,0,0,1,554,107a.08.08,0,0,1,.1-.13,5.71,5.71,0,0,0,3.62.3c0-.23-1-2.75-.93-2.79a7,7,0,0,1,1.87.06c-1.07-3.43-2.68-6.66-3.69-10.09a.11.11,0,0,1,.19-.09,58.48,58.48,0,0,1,4.45,10.69C559.72,105.34,558,105.07,557.63,105Z" style="fill:#263238"></path><path d="M557.78,107.35a4.63,4.63,0,0,1-1.43,1.86,2.1,2.1,0,0,1-1.21.39c-.95,0-1.18-.81-1.2-1.55a5.41,5.41,0,0,1,.12-1.16A6,6,0,0,0,557.78,107.35Z" style="fill:#263238"></path><path d="M556.35,109.21a2.1,2.1,0,0,1-1.21.39c-.95,0-1.18-.81-1.2-1.55A2.18,2.18,0,0,1,556.35,109.21Z" style="fill:#ff9abb"></path><path d="M535.07,106.69c2.87-.2,2.65-6.24,2.65-6.24s5.76-.83,6.45-9.4a12.91,12.91,0,0,1-1.55,7.23s10-2.57,13-11.7c0,0-1.07,4.58-2.45,6.36,0,0,4.09-1.82,5.66-5.58,0,0,2.5,4.64,4.07,5.8,0,0-3-17.72-19.23-13.41,0,0-10.21,2.2-12.72,10.91S535.07,106.69,535.07,106.69Z" style="fill:#263238"></path><path d="M539,105.51s-4.72-4.31-6.75-2.52,2.32,8.6,5.27,9a2.84,2.84,0,0,0,3.37-2.33Z" style="fill:#d3766a"></path><path d="M533.57,104.91a0,0,0,0,0,0,.08c2.08.34,3.48,1.89,4.6,3.57a1.56,1.56,0,0,0-2.38.09s0,.12.07.09a1.75,1.75,0,0,1,2,.18,8.57,8.57,0,0,1,1.24,1.31c.12.15.41,0,.3-.19l0,0C538.9,107.55,536.24,104.57,533.57,104.91Z" style="fill:#263238"></path><path d="M548,131.72s-9-13.47-18.4-15.28l.39,7.13s7.85.59,17.23,10.15Z" style="fill:#407BFF"></path><path d="M548,131.72s-9-13.47-18.4-15.28l.39,7.13s7.85.59,17.23,10.15Z" style="fill:#fff;opacity:0.5"></path><path d="M527.45,123.56a11.83,11.83,0,0,1,5,1c6.38,1.9,12.66,7.6,12.66,7.6l1.8,1.86.2.2.25-.1c3.26-1.54,6.68-5.35,7.32-6.11a41.57,41.57,0,0,1-7.63,5.37l.45.1-1.8-1.91c-.62-.61-7.57-5.79-13.09-7.47-.41-.14-.84-.24-1.27-.35s-.86-.17-1.3-.22A7.63,7.63,0,0,0,527.45,123.56Z" style="fill:#263238"></path><path d="M524.56,127.87a28.2,28.2,0,0,0,5.44-4.3,29.26,29.26,0,0,0-5.44,4.3Z" style="fill:#263238"></path><path d="M545.71,129.68a52.32,52.32,0,0,0-2.12,8.73c-.33,2.07-.57,9.61,1.77,9.67s-.74-5.27-.85-9.28,1.33-6.74,1.8-9.07Z" style="fill:#407BFF"></path><g style="opacity:0.1"><path d="M545.71,129.68a52.32,52.32,0,0,0-2.12,8.73c-.33,2.07-.57,9.61,1.77,9.67s-.74-5.27-.85-9.28,1.33-6.74,1.8-9.07Z"></path></g><path d="M551.44,130.32a47.84,47.84,0,0,1,1.72,8c.25,1.9.29,8.79-1.85,8.78s.81-4.79,1-8.45-1.06-6.19-1.42-8.32Z" style="fill:#407BFF"></path><g style="opacity:0.1"><path d="M551.44,130.32a47.84,47.84,0,0,1,1.72,8c.25,1.9.29,8.79-1.85,8.78s.81-4.79,1-8.45-1.06-6.19-1.42-8.32Z"></path></g></g></svg>
